<svg version="1.2" xmlns="http://www.w3.org/2000/svg" viewBox="0 0 2000 2000" width="2000" height="2000">
	<title>Owl-ai</title>
	<style>
		.s0 { fill: #e0dbca } 
		.s1 { fill: #0e2e37 } 
		.s2 { fill: #ce9c58 } 
		.s3 { fill: #f8eecf } 
		.s4 { fill: #34c9ba } 
		.s5 { fill: #89653c } 
		.s6 { fill: #0f827d } 
		.s7 { fill: #7b5d39 } 
		.s8 { fill: #c49351 } 
		.s9 { fill: #3ca89c } 
	</style>
	<g id="_Artboards_">
	</g>
	<g id="Layer 1">
		<g id="&lt;Group&gt;">
		</g>
		<g id="&lt;Group&gt;">
			<g id="&lt;Group&gt;">
				<path id="&lt;Path&gt;" class="s0" d="m951.7 1093c1.6 6.3 3.6 12.4 5 18.7 7.7 54.2 24.2 106.9 43.8 157.8 20-47.9 35.8-98.3 42.7-149.9 1.1-3 2.3-5.9 3.6-8.8 0.3 5.4 0.7 10.9 0.6 16.4-4.7 44.8-19.1 87.9-34.2 130.1-3.6 9.2-6.6 19-12.7 27-9-16.7-14.6-34.9-21.1-52.6-14.2-45-28.5-91.1-27.7-138.7z"/>
			</g>
			<g id="&lt;Group&gt;">
				<g id="&lt;Group&gt;">
					<path id="&lt;Compound Path&gt;" fill-rule="evenodd" class="s1" d="m449.8 258.4c6.2-12.1 15.9-22.6 28.7-27.9 3.5 74.8 49.2 144.3 113.4 181.5 19.9 11.5 45.5 23.3 67.7 11.4 48.6-24.7 98.8-46.7 151.4-61.5 72.1-19.9 147.6-25.6 222.2-22.6 106.7 2.9 211.4 33.7 305.5 83.6 19.2 12.4 42.8 3.3 61.7-5 68.8-35.3 118.7-108.1 122-186 18.3 7.8 28.8 26 36.3 43.5 11.1 25.3 16.1 52.9 15.5 80.5 27.8-25.6 39.8-63.8 44.1-100.4 27.3 76.3 5.2 166.7-52.1 223.3 38.8-14.2 69-46.4 88.1-82.4-7.1 76.9-58.1 142.6-119.7 185.8 27 1.1 52.6-8.7 77.5-17.8-18 25.7-45.9 42.7-74.9 53.5 21.9 18.5 46.3 36.5 58.9 63.1-8.7 0.1-17.3 0.2-26 0.6 16.2 12.4 33.3 25.6 41.6 44.9-8.8 0.7-17.6 1.1-26.3 2 12.1 14.1 28.6 25.9 34.3 44.4-8 1-16.1 1.4-24.2 1.4 17.6 18.8 33.4 40.4 39.3 66-7.9-0.9-15.8-2.4-23.6-4 13.2 17.4 23.5 37.2 27.1 58.9-11.6-0.3-21.8-5.8-31.2-12 12.7 20 26.1 40.6 29.3 64.5-10.3-1-19.1-6.5-27.4-12.2 2.5 15.3 8.1 30 8.3 45.7-11.7-1.5-20.7-9.2-29.7-16.1 7.1 22.2 20 42 27.8 64 39.1 100.9 61.3 213.7 33 320.4-2.1 6.7-5.5 19.2-14.9 15.6-9.2-7.6-9.3-20.8-13.6-31.2-11.3 59.9-29.7 120-64.4 170.8-4.9 6.5-10.4 16.1-19.9 14.5-6.5-1.3-5.9-9.8-7-14.9-2.2-29.5-3.1-59.1-5.9-88.5-13.3 63.4-44.6 122-84.9 172.3-9.1 10.4-19.4 23.6-34.7 23 1.6-28.7 2.3-57.4-1.4-86-9.7 47.1-37.1 88.5-71.2 121.8-10.4 10.1-21.6 20.9-36 24.5-3.4 1.5-8.7-0.6-6.4-4.8 7.8-20.7 19.3-40.6 20.5-63.2-27.5 44.8-66.1 83.6-113.4 107.1 3.3-6.3 6.9-12.6 10.2-18.9-29.4 20.8-61.4 43.4-98.5 45.2 6-24.1 24.1-45.3 19.8-71.5-26.4 34.2-57.3 66.9-97.7 84.5-19.2 8.6-42 6.2-60.1-3.9-36.9-19.3-67.3-49-92.2-82-4.8 27.4 17.9 47.8 22.7 73-35.1-1.7-66.3-21-94.9-40 1.4 4.2 2.9 8.4 4.3 12.6-15-5.5-28-15-40.6-24.7-30-23.2-56.7-51.6-74.3-85.4 1.1 25.2 14.2 47.2 21.5 70.8-12.2 4.3-23.2-4.5-32.1-11.7-40.6-34.6-73.1-79.9-87.5-131.6-5.8 27.3-1.1 55.1-0.2 82.6-18.1-0.4-27.9-17.8-38.5-29.9-37.9-50.8-70.3-108.2-79.9-171.7-5.5 34.3-5.2 69.4-8 104 0.2 11.4-15 7.9-18.7 0.4-37.9-52.3-61.2-114.7-70.6-178.5-3.9 9.9-3.5 23-12.6 29.8-8.1 4.5-11.5-6.5-13.8-12.2-11-33.2-14.1-68.5-14.2-103.3 2.6-84.8 21.1-169.4 56.9-246.4 5.3-12.1 12-23.7 14.8-36.7-9.4 6.6-18.5 14.7-30.3 16.3 0.8-15.8 6.4-30.7 8-46.3-8.2 5-15.7 11.6-25.4 13.1 1-23.8 15.2-43.8 27.7-63-9 5.4-18.7 10-29.5 9.9 3.2-21.7 14.3-41.2 27.2-58.7-7.4 1.2-14.8 2.4-22.2 3.5 5.6-25.2 21.9-46.4 39.8-64.2-7.9-0.8-15.8-1.4-23.7-2.3 6.8-18.2 21.9-31.3 35.5-44.5-9.8-0.6-19.7-1.1-29.4-2.3 9.3-18.4 25.2-32.3 41.5-44.5-8-0.4-15.9-1-23.8-2.2 12.9-25.7 35.7-44.6 58.1-61.7-30.5-9.6-58.2-28.4-77.8-53.8 25.1 9.7 51 19.7 78.4 18-62.3-41.1-110.5-108.5-117.3-184 17.8 35.9 48.7 65.4 85.7 80.7-56.1-56.3-76.8-145.4-50.6-220.5 5.9 35.1 14.3 73.2 42.9 97.5-0.4-33.9 8-67.8 24-97.6zm16.1 36.1c-15.1 38.5-5.1 82.9 18 116 16.6 27.7 45.2 45.7 61.3 73.5-14-7.8-24.1-20.8-37.6-29.4 3.7 6.6 7.5 13.1 10.6 20-30.2-16.3-55.6-40-80.3-63.5-7.4-9.8-15.5-19-23.4-28.2 0.3 20 7.6 39.6 20.8 54.8 31.1 40 75.7 66 109.6 103.3-10.4-2-19.1-9-29.7-10.3 28 22.2 56.8 45.4 90 59.3-17.8-31.2-32.4-64-48.9-95.9-0.8-5.7-3.2-11-4.9-16.4 3.2 2 6.4 3.9 9.4 6.3 11.3 25.9 27.1 50.1 46.4 70.8 14.6 15.8 26.2 33.9 39.2 50.9 1.7 2.6 4.5 4 7.3 5.1-2.4-7.7-4.7-15.3-5.5-23.2 12.9 14 19.2 32.5 30.9 47.5-1.7-4.7-3.5-9.4-5.3-14.1 13 9.7 21.7 23.7 33.1 35q0.3-4.8 0.7-9.6c6.6 8.2 12.5 17.1 20.8 23.7q-1.6-6-3.3-11.8c40.5 44.1 83.6 86.2 132.8 120.5 12.8 8.5 23.5 19.8 36.6 28-1.5-11.2-4.8-22.1-10.7-31.8-4.1-5.7-8.4-11.4-13.7-16.2-22-19-44.2-37.8-66.8-56.2-36.1-28.1-67.5-61.6-98.3-95.3-1.6-1.7-3.5-3.3-5.8-4.1-6.7-10-15.2-18.6-22-28.5-28.9-39.1-49.4-84.4-83.7-119.4-21.5-22.9-47.5-40.9-69.5-63.4-26-25.6-43.1-58.2-57-91.5-0.3-2-0.7-4-1.1-5.9zm1069.2 1.8c-0.1 1.1-0.2 3.1-0.3 4.1-9.7 17.9-15.8 37.7-27.2 54.8-22.2 37.6-59.4 61.8-88.9 92.8-28 27.8-47.4 62.5-68.5 95.5-17.6 28.1-40.5 52.3-61 78.2-7.4 2.9-11.9 10-17.5 15.2-32.5 36.9-73.3 64.8-110 97.1-15.7 14.1-35.6 27-40.9 48.8-4.2 4.4-2.7 12-3.8 17.7 58.4-42 111.9-90.6 162.5-141.7q2.2 2.4 4.5 4.7c5.3-4.7 10.9-9.2 16.7-13.2-1.1 4.6-2.3 9.2-3.4 13.9 18.1-18.3 31.6-40.9 51.7-57.3-3 8-6.3 15.8-9.1 23.9 12.8-12.2 23-26.7 32.9-41.2 14.9-22.6 33.2-42.9 47.1-66.2 9.1-14.3 16.8-29.6 27.4-42.9-3 22.8-16 42.2-25.2 62.8-7.3 16.1-16 31.5-25.4 46.6 31.9-12.9 59.3-35.2 85.7-56.9-10.1 1.5-19 6.6-27.8 11.2 6.9-12.1 17.8-21.1 28.2-30.1 27.5-25.3 58.2-47.4 80.5-77.7 12.8-15.1 20.4-34 22.3-53.6-7.3 8.7-17.1 16.2-21.2 27-28.8 25.6-58.3 51.2-91.8 70.6 7-11 17-19.9 23.9-31-13.1 11.1-25.5 23.2-39.9 32.7l0.9-1.3c12-21.5 32.9-36.3 47.5-55.9 29.9-34.3 47.3-84.5 30.1-128.6zm-794.8 121.7c-17.4 8.7-35.5 17.3-50.5 29.6-13.7 6.3-26.5 17.9-29.1 33.3-5.2 25.5 11.7 48.2 25.2 68.2 1.6-12.8 0.9-26.1 5.3-38.4 5.1 11.2 7.9 23.4 13.8 34.2 11.9 23 29.4 42.2 44.9 62.6 15.8 21 33.7 41 55.1 56.3-4.5-9.6-12.3-17.2-16.1-27.1 5.8 3.3 11.5 6.8 17.3 10.1-20.9-27.3-46.8-51.3-61.6-82.8-7.6-16.7-17.1-33.7-16.3-52.6 13.8 8.2 24.9 20.7 40 26.9 15.6 6.7 31.1 16.1 48.6 16.1-2.2-6.3-6.8-11.1-11.8-15.4q2.7-4 5.5-8c5.6 4.3 11.3 8.4 17.5 11.7 10.6 14.5 25.6 26.1 40.7 35.7-1.8-9-4.5-18-9.2-26-2.1-4.4-6.6-9.1-3.1-14 7.8 6.7 14.4 14.5 22.2 21 3.2 10.7 11.7 19.2 19.4 26.9-1.5-10.3-5.1-20-6.9-30.2 20 18.5 25.7 47 40.7 69.2 2.1-15.1-6.4-29.1-4.4-44 13.5 17.5 24.2 36.9 33.1 57.1q0.3-3.5 0.5-7.1c2.9 5.5 6.6 10.4 11.6 14 3.5-28.6-1.5-57.6-9.2-85.2-8.2-31.7-10.6-64.8-7.8-97.4 5.9 26.2 10.9 52.6 18.8 78.3 6.9 29.6 10.8 59.7 16.4 89.5 3.1-4.5 6.6-9.4 6.5-15.2 0.3-21.7 2.7-43.2 3.7-64.9 10 27.5 10.7 57.4 11.3 86.4 10.7-13.9 8.9-32.5 11.1-48.9 2.1-39.9 15.4-77.9 20.6-117.4 5.9 39.8 0.5 80.6-8.9 119.4-2.8 20.8 1 41.9-1.4 62.9 4.8-0.9 11.3-0.8 13-6.4 7.7-20.4 15-41.2 27-59.6 1.2 13.6-2 27-1 40.6 15-21.7 21.2-48.3 37.8-69-2.8 10.5-5.3 21.1-4.9 32 7.5-9.2 15-18.7 19.9-29.5 8.3-7.4 14.3-17.1 23.1-24q1.4 2.1 2.8 4.2c-4.7 12.9-12.4 24.3-16.8 37.3 14.5-9.7 30.9-19.6 39.8-34.9 9.5-6.3 18.3-13.6 27.3-20.4 2.7 12.9-10.3 20.5-15 31 13 0.8 24.1-6.8 35.7-11.4 19.4-8 35.5-21.5 52.9-32.7-2 26.6-13.8 51.4-27.6 73.8-10.9 17.3-26.9 30.7-37.3 48.3q4.1-0.2 8.4-0.3c-3.7 6.7-7.2 13.5-10.2 20.6 11.3-6.4 16.4-18.9 26.5-26.6 14.6-16.2 28.2-33.2 40.8-51 16.3-17 24.3-39.4 31.7-61.3 6.2 12.7 6.6 27.1 7.3 41 10.2-13.9 20.9-27.8 27.3-44 6.8-26-8.6-55.6-33.8-65-21.3-15.2-45.3-26.3-69.5-36-74.1-26-152.4-41.4-231.1-41.6-91.3-1.7-183.7 13.6-267.6 50.1zm33.8 149.7c6.8 23.4 22.8 42.9 39.2 60.4 7.5 7.5 14.1 16.6 24.3 20.8-3.9-10.9-10.8-20.4-15.4-31q4.2-0.9 8.4-1.8c2.1 6.1 5.6 11.4 9.6 16.3 14.8 18.7 27.4 39.3 45.1 55.4 0.8-11.7-6.6-21.5-10-32.3 21.1 14 32.1 39.3 53.1 53.8-0.4-14.4-8.8-27-15.6-39.2-30-48-80.5-80.3-133.3-97.9-1.5-1.8-3.6-3.1-5.4-4.5zm315.2 104.3c-8.2 14.5-16.8 30.1-17.7 47 20.2-19.2 34.5-44.2 57.3-60.7-3.3 10.5-8.6 20.4-9.6 31.5 23.1-20.3 38-49.1 63.3-67.3-1.4 4.9-2.8 9.8-4.2 14.7 19.3-16.5 39.2-35.9 46.3-61 1.5-2 2.9-4.2 4.2-6.3-55.6 17.6-107.6 52.7-139.6 102.1zm-534.6-40.9c29.1 25.9 64.8 44.2 101.6 56.2-31.8-21.9-65.3-42.6-101.6-56.2zm794.8 54.3c10.4-0.5 19-6.6 28.1-10.8 24-10.2 45.8-25.1 65.7-41.7-34.1 11.7-64.8 31.6-93.8 52.5zm-865-28.2c25.3 5.7 50.1 14.9 76.2 16-8.9-14.2-24.1-24.2-40.5-27.2-12.8-1.2-24.9 5-35.7 11.2zm956.4 13c24 1.9 47.7-6.4 70.1-14.1-11.7-7.2-26.1-10.9-39.8-8.9-12.5 3.4-23.5 12-30.3 23zm-975.3 13.8c14.6 7.6 31.4 9 46.6 15-8 1.6-16.1 3.1-24.1 5.3-15 7-28.3 18.1-35.4 33.4 19.2-5.6 38.3-11.6 57.3-17.9 21.4-3.5 41.1-14.1 62.6-18.3-20.2-10.4-39.8-22.8-61.9-28.5-15.9-4.4-31.7 3-45.1 11zm1025.9-11.2c-24.7 5.2-47.2 17.6-70 28.1 42 9.4 81.7 27.4 123.9 35.9-10.2-23.3-34.9-34.3-59-36.3 14.5-7.4 30.9-9.8 45.4-17.1-11.9-7.5-25.9-13.8-40.3-10.6zm-540.3 11c6 20.5 19 37.9 29.6 56.2 9.9 14.6 14.2 31.8 20.3 48 5.6-1.4 4.9-10.7 7.8-15.3 9.7-31.8 32.4-57 45.6-87.1-22.4 19-40.8 42.7-52.7 69.6-12.2-26.7-28.9-51.5-50.6-71.4zm269.3 52.3c-29.3 28.1-58.4 56.3-89.6 82.3-15.9 3.1-28.4 14-41.1 23.4-16.9 13-34.2 25.6-51 38.8-14.2 11.4-25.2 26.1-37.5 39.5-6.9-6-12.6-13.1-18.6-20-20.4-22.3-45.8-39-69.6-57.3-13-9.7-25.9-20.9-41.9-24.9-29.1-25.3-58-51.1-85.2-78.5-10.8-10.7-21.5-21.7-34.2-30.2 24.9 41.1 47.3 85 82.4 118.7 32.7 30.7 73.4 51.8 115.5 66.4 18.4 12.2 39.4 22.7 50.5 43.1 9.4-11.8 18.9-24.2 32.2-32 7.2-4.9 16.3-6.9 23-12.7 46.5-17.6 92.7-40.5 127.2-77.3 29.8-31.4 50.5-70 69.7-108.5-12.1 8.1-21.4 19.3-31.8 29.2zm-722.1-2.3c-26.8 5-51.5 24.2-59 50.9 14.6-0.7 29.3-3.2 43.9-1.3-8.4 6-18.7 8.6-27.1 14.7-11.4 8.4-20.2 20.2-24.9 33.6 13-4 25.9-8.6 39.6-9.7-16.3 9.6-30.7 25-31.9 44.9 18.8-2.8 36.5-10.7 55.3-13.1-11.2 8.8-26.2 10.3-37.6 18.9-9.2 7.2-14.4 18.4-15.8 29.8 13.3-2.2 26.2-6.9 39.8-5.7-21.9 6.3-41.8 26.7-36.1 51.1 7.3-9.5 15-19 25.8-24.6-12.4 18.2-27.1 40.4-17 63.1 6.4-11.8 10.3-25.2 19.2-35.6-4.9 26.6-17.5 53.8-8.5 81.1q3-3.9 5.9-7.8c0.3 1.2 1 3.6 1.4 4.8 6.2-14.6 12.4-30.1 24.6-40.8-3.8 12.6-11.2 23.9-14.1 36.8-5 22.5-3.9 49.4 11.8 67.5 6.9-14.1 8.6-30.4 17.6-43.6-1.2 16.6-6.6 33-4.3 49.7 2 14.5 7.2 29.5 18.5 39.3 3.1-15.5 2.8-31.7 9.1-46.5 1.5 21.7-6.2 47.1 9.1 65.4 0.7-7.4 1.1-14.8 1.6-22.2 4.6 18.2 12.5 36.2 26.7 49-2.9-12.2-5.6-24.5-5.2-37.1 4.5 11.7 8.1 24.2 16.8 33.7 36.2 40.8 92.7 62.9 147 55.4-30.3-8.5-61.5-16.7-87.9-34.5-20.6-14.2-40.2-32.4-49.4-56.2 29.8 40.6 74.8 70.6 124.9 78.5 27.8 3.2 56.4 2.9 83.8-3.4 33.5-8 63.8-28.3 84.4-56-24.3 18.6-50.7 36.3-81.7 40.9 9.4-5.9 20.9-10 26.1-20.5-28.6 10.8-57.8 23.2-89 21.7 5.2-2.1 10.6-3.6 16.2-4.4 30.5-4.1 59.1-19 82-39.3 20.9-17.9 44.5-36.2 51.7-64.2 10.4-15.6 18.3-32.8 29.2-48.1 2.4 14.1 3.1 28.6 8.2 42 2.6-38.8 17.3-75.9 40-107.3l1.4-0.3c6.6-9.3 17.5-19 14.3-31.6-5.3 5.1-10.4 10.6-15.6 16 2.3-10.3 3.7-20.8 3.4-31.4-5.7 10.5-13.7 20.3-16.5 32.1-8.1 11.2-14 23.9-23 34.4 4.4-24.1 23.7-43.7 23.3-69-16.4 19-22.4 45.6-40.6 63.7 3.1-13 9.8-24.7 14.9-36.9 5.5-11.3 9.6-23.6 9-36.4-8.8 12.1-14 26.4-23.6 37.9 7.3-15.4 11.1-33.3 3.2-49.4-8.1 27.8-19.1 55-38 77.4-21.9 25.4-44.6 50.3-71.6 70.3-9.9 2.7-18.6 8.2-28.5 10.8 9.1-9.8 20.9-16.7 29.3-27.2-9.5 3.5-18.6 7.8-27.6 12.4q0.2-5.4 0.8-10.8c-11.2 0.5-22.5 1.2-33.7 2 4.3-2.5 8.4-5.2 12.3-8.2-23.5-3.3-48-4.1-70-14-25.7-12.3-49-30.2-66.2-53-14.9-21.8-24.5-47.1-27.8-73.3-2.8 2.7-5.6 5.6-8.2 8.6-7.1 3.5-12.8 9.2-18.1 14.9q-4.8 1.9-9.6 3.8c7.4-13.8 23.2-19.6 32.3-31.8 0.9-18.5-0.6-37.4 4.7-55.5-5.3 6.3-11 12.2-17.4 17.3 5.4-18.6 20.6-32.3 25.7-51.1-18-3.7-33.1 9.2-45.9 19.9 1.3-18.9 12.5-35 21.7-50.9-7.7 1.4-15.4 2.7-23.2 3.6 4.6-10.2 13.1-17.6 21.5-24.6-18.9-0.8-37.8-0.7-56.7-1.8 4.1-1.5 8.2-3.1 12.3-4.6 16.3-7.3 33.8-11.5 49.8-19.5-28.1-13.4-60.6-2.6-88.8 5.3zm916.3-5.4c16.4 6 32.8 13.2 49.2 18.3 3.6 2.2 7.1 4.4 10.9 6.1-19.7 2.3-40.2-4.3-59.5 2.3 8.9 7 19.9 12.6 24.2 23.9-7.2-1.2-14.4-2.4-21.6-3.2 8.4 16.2 20.2 31.4 21.6 50.3-13.8-9.5-27.4-21.8-45.3-21.5 2.1 17.5 18.6 29.2 20.3 46.9-4.4-4.7-8.7-9.6-13.3-14.1 2.4 17 4.6 34.1 4.4 51.3-1.1 8.9 6.5 14.2 12.3 19.2q-2.7 1.1-5.5 2.2c-3.2-2.6-7.2-3.9-11.1-5.1-0.3-0.8-1-2.4-1.3-3.1-6.1 49.6-38.4 93.9-82.6 116.9-26.7 16.1-58.4 19.1-88.8 21.6q2.2 2.8 4.3 5.7c-6.5 1.2-13.1 1.9-19.7 1.7q3.4 3.3 6.8 6.6-1.6 2.2-3.1 4.5c-9-4.3-18-9-27.6-12 7.5 9.7 18.4 15.6 27.6 23.4-11.9-0.7-21.8-7.9-32.9-11.4-6.7-8-16.3-12.7-23.4-20.2-17.6-15.8-30.6-36-48.9-50.9l-0.1-1.3c-7.6-12.2-17.1-23.4-21.6-37.3-4.9-11.6-5.9-24.8-12.6-35.6-3.4 11.6-2.6 23.8-2 35.8-5.7-7.7-9.6-16.5-15.3-24.1-1 10.4 1.3 22 8.1 30.2 5.1 16.1 15.2 30.1 19.4 46.6-18.2-20.2-28.9-45.6-41.4-69.4-1.9 25.5 20.2 44.5 22.1 69.3-7.4-10.2-12.7-21.8-20.4-31.8-3.8-11.6-10.9-21.8-16.3-32.7-0.7 12.6 1.2 25 3.3 37.4-6.7-7.1-12-15.4-17.3-23.6-0.8 13.5 6.5 25.2 15.3 34.6 24.2 31.9 39.8 71.5 38.2 111.9 5.1-15.3 7.3-31.3 9.1-47.3 10.2 18.1 19 37.3 31.9 53.9 3.1 20.8 20.7 34 35.2 47.1 25.3 20.9 53 40.9 85.7 47.7 8.5 1.3 17.1 2.9 25.3 5.7-20.6 2.7-40.7-4.2-59.9-10.6-8.9-2.8-17.3-8.7-27-7.2 8.2 8.6 20.3 11.4 30.1 17.8-27.2-2.3-52.8-14.7-74.6-30.7-1 0.4-2.9 1.3-3.9 1.7 31.6 35.4 80.3 51.4 127 49 67.1 0.5 133.4-37.1 165.9-96-3.5 23.6-22.2 41.2-38.8 56.8-29.4 27.1-68.9 37.6-105.9 49.7 41.5 4.6 84.1-9.2 116.3-35.4 16.6-12.2 26.7-30.7 32.7-50 0.8 11.7-2.1 23-5.3 34.2 14.9-10.8 24.6-26.9 31.9-43.5q0.2 8.9 1 17.7c14.9-11.1 14.1-30.9 17.7-47.3 2.8 11.6 2.5 23.5 2 35.3 24.4-23.5 24.1-60.6 14-90.7 10.2 10 13.2 24.5 18.7 37.2 23.5-29.9 19.7-72.9 1.8-104.6 10.9 9.2 18.3 21.5 24.6 34.1 1.5 3.9 5 5.9 8.7 7.4 9.3-27.3-5.5-54.3-11.8-80.5 8.8 13.1 13.7 28.3 21.6 42 5.2-15.1 5.4-33-3.2-46.9-4.6-7.2-10.2-13.6-14.4-21 12.1 4.7 20.5 15.1 27.4 25.7-0.4-11.4-0.8-23.7-7.8-33.3-6.1-10.2-17.8-14.2-27.8-19.5 13.6-0.4 26.3 4.5 39.3 7.6-2.3-12.2-6.6-25.6-17.7-32.6-11.3-6.6-24.8-9.1-35.2-17.4 19.1 3.3 37.2 11.1 56.6 13.3-5.1-19.9-19.6-35.2-37.3-45 13.7 0.7 26.5 6 40 7.9-3.8-15-14.4-27.8-27.9-35.1-8.4-4.9-18.4-6.5-25.9-12.8 16.6-0.8 33.1 1.9 49.4 4.3-9.8-28.7-35.4-49.8-65.3-54.2-25.2-9.6-55.2-16-80.6-3.9zm-339.2 73.7c-5 13.9-14.2 25.7-18.9 39.6 8.7-7.6 15.3-17.2 24.2-24.6 12.1-10 18.7-24.6 26.5-37.8 7-12.5 14.7-24.5 21.2-37.3-22.3 14.8-45.8 33.2-53 60.1zm-196.7-57.7c18.9 31.9 33 68.3 63.4 91.6-1.2-10.6-7.5-19.5-10.5-29.5-7.3-27.5-31-46.1-52.9-62.1zm156.9 74.2c9-11.5 13.6-25.8 23.5-36.7 8.4-9.2 9.9-22.1 10.7-34-21.6 16.8-30.3 44.6-34.2 70.7zm-432.9-43.3c23-1 46.1-3.6 69.2-1.5 14.6 0.3 29.2 3.4 43.8 2-19.8-15.1-45-21.5-69.5-23.2-17.2-1.4-35.4 7.1-43.5 22.7zm337.4-23.8c-0.3 10-1.7 21.4 5.2 29.7 9.1 11.5 15.9 24.5 23.4 37.1-1.7-24.5-12.5-48.3-28.6-66.8zm337 25.1c39.2-2.5 78.6-5.3 117.9-1.9-8.7-15.8-27.8-23.7-45.4-22.1-25.9 0.5-51.4 8.9-72.5 24zm-625.8 13.3c-10.5 5.5-14 17.9-19 27.9-21.4 48-17.1 108.5 17.6 149.3 37.1 47.3 106 62.1 161.3 41.3 26.2-9.2 50.6-26.5 63.7-51.5l1.7-0.4c10.5-15.4 19.3-33 19.6-52 0.4-6.6-7.5-8-12.3-9.9-6.7 35.3-31.8 67.6-66 79.8 19.5-15.2 41.6-32.1 45.7-58.3-14.2 17.6-28.7 37.5-51.3 44.8 26.3-20.7 50.7-49.8 48.7-85.4q-3.5-2.1-6.9-4.2c-2.1 53.3-58 94.8-109.6 83.3-30.5-6.8-57.1-32.5-61.1-64.2-2.8-13.3 1.3-26.6 2.3-39.8-26.4 9.8-26.2 44-26.5 67.6-9.7-21.3-10-45.5-6.9-68.4 6.7-20.5 16.1-41 33.1-55.1-10.7-4.1-22.7-8.5-34.1-4.8zm662.1 4.6c24.6 22.6 36.7 56 34.5 89.1-1.7 11.2-4.7 22.2-9.4 32.5 0.1-22.8-0.3-56.1-26-65.2-0.2 15 4.3 30 0.7 44.8-6.5 25-25.9 45.9-49.9 55.3-52.5 21-117.4-21.7-119.6-78.1-2.6 2.3-7.1 3.9-6.6 8.2-0.3 18.5 8.2 36.1 18.4 51.3 7.9 11.6 20.6 18.4 30.1 28.5-22.2-6.9-36.1-26.4-50.7-43.1 6.9 27.5 29.9 47.7 54.6 59.6l0.8-1.4c1.4 0.7 4.2 2 5.6 2.7-22.7-1.1-42.3-15.5-57-31.7-13.7-14.6-20-34-25.8-52.6q-5.8 3.2-11.5 6.4c0 23.9 10.4 49.1 27.5 65.5 29.1 43.5 88 57.7 137.3 48.2 49.7-9.2 92.7-47.7 106.8-96.2 11.5-33.6 7.2-70.8-7-102.9l-1.9 0.3 1.8-0.3c-4.6-9-7.5-20.8-17.3-25.7-11.8-3-24.4 0-35.4 4.8zm-590.1 19c-19.7 2.2-28.9 28.7-15.5 43 11.8 15 38.6 8.4 42.7-10 5.5-16.7-10.2-34.9-27.2-33zm548.8-0.1c-15.2 2-28 17.7-23 33.1 4.3 18.9 32.1 24.5 43.3 8.5 14.4-15.5 0.8-43.6-20.3-41.6zm-318.8 255c9.5-9.5 18-26.6 34.1-18.6 3.2 8.2 1.8 16.5-3.6 23.5-5-2.1-9.4-5.2-13.5-8.8-6.7 8.8-21.2 15.8-18.7 28.5-0.8 47.6 13.5 93.7 27.7 138.7 6.5 17.7 12.1 35.9 21.1 52.6 6.1-8 9.1-17.8 12.7-27 15.1-42.2 29.5-85.3 34.2-130.1 1.5-12.4 2.6-24.9 1.7-37.4-1.2-10.6-10.2-17.5-17.5-24.1q-5.9 3.9-11.7 7.8c-5-6.2-7.5-13.7-5.3-21.5 15-10.5 25.2 6.4 33.6 16.4 0.5-37.6-24.6-67.6-46.8-95.3-24 26.7-46.2 58.3-48 95.3zm-585.3 220.9c10.5-54.4 20.4-109.3 41.7-160.7 9.1-19 6-40 5.8-60.2-36.2 67-57.1 144.5-47.5 220.9zm1218.5-221.1c-2.7 17.9-4.8 37.4 3.9 54.1 20.8 48.4 32 99.9 43.4 151.1 3.8-19.2 2.8-38.9 0.5-58.2-6.8-51.3-22.4-101.9-47.8-147zm-1182.2 250.6c2.1 28 8.2 56.4 19.7 82.1 1.5-11.3-1.8-22.4-2.3-33.6-3.5-55.1 7.7-111.8 34.7-160.2-2.8 25.1-3.8 50.4-6 75.6-0.3 9.5-2.5 19.6 1.7 28.6 7.2-19.9 10.4-41.6 22.2-59.6-0.5 11.8-3.1 23.3-3.8 35-5.2 25.5-5.2 53 4.3 77.5 7.6-35.5 16.9-70.7 28-105.3 4.5-14 15-25.7 16.6-40.6l-0.8 1.2c-13.7-8.4-23.2 6.4-30.5 15.8-1.5-4.1-2.9-8.2-4.6-12.1-3.8-33.3-25.1-60.8-38.7-90.6-31.8 55.9-46.5 122.2-40.5 186.2zm1113.6-97.7c-1.9 4.9-3.5 9.9-5.2 14.9-7.1-10.3-17.9-25.4-32.1-16l-1-1.1c3.4 12.1 11.1 22.2 15.8 33.7 13.5 31.7 18.5 66.4 29.5 98.7 9.4-24.1 9.4-50.9 6.5-76.2-0.5-8.5-0.3-17.1 0.5-25.6 13.1 21.4 14.7 47 19.8 71 6.3-39.3-3-78.6-6.4-117.7 9.1 10.2 13.8 23.2 19.1 35.5 19.4 49.6 18.8 104.2 12.1 156.3 12-24.8 17.5-52.5 19.2-79.8 4.6-44.1-1.9-89.1-16-131-6-18.3-13-36.7-24.9-52.1-12 29.9-33.2 56.6-36.9 89.4zm-646.5 98.8c4 17.6 13.4 33.6 17 51.4-10.7-6.7-15.8-18.8-20.9-29.8-13.3-29.9-9.1-63-7.9-94.6-8.4 8.9-11.3 21.1-16.6 31.8-15.8 35.1-35.7 70.8-33.9 110.6-6.7 37.3-7.4 75.8-2.8 113.4 5.1 33.9 17.2 69.1 42.8 93-2.9-34.9-0.7-70.8 8.2-104.6 7 10.9 2.2 24.7 5.2 36.8 3.6 28.4 20.1 53.4 41.5 71.8-0.9-31.7-1.3-64.5 10.8-94.4 4.3 10.9 0.9 22.6 1.5 33.8 0.4 25.5 9.7 53.1 30.3 69-3-19.3-8.8-38.6-5.8-58.3 9.7 27.3 21.8 54.5 43 74.9-2.4-24.8-2.7-49.8 0.5-74.5 8.2 21.7 10.6 45 17 67.3 11-21.5 8.4-47.1 16.1-69.8 5.5 23.6 2.8 47.9 2.2 71.8 20.4-18.6 29.5-45.2 42-69.1 2.1 18.7-1.9 37.1-4.6 55.4 24.6-19.7 26.6-53.5 27.1-82.7 12.9 24.3 16.3 53 14.1 80.1 18.6-16.9 34-38.2 39.6-63 3.9-16.2 2.5-33.1 4.8-49.5 1.2 0 3.8 0.1 5.1 0.1 5.1 30.9 8.2 62 9 93.3 27.7-27.4 38.4-68.4 40.1-106.3 3.1-26.8 2.3-54.1-2.1-80.7 2-41.3-17.3-79.2-35.4-115.1-6.2-11.8-10.4-25-19.3-35.3-3 12.8 2.4 25.5 2.3 38.4 2.4 32.1-4.7 68.9-30.8 90.2 5.7-25.1 19.7-48.3 20.1-74.5 1-26.1-7.6-52.7-24.2-72.9-4.9 19.9-6.2 40.7-12.5 60.3-3.5 0.7-3.3-3.5-4.3-5.7-4.9-17.5-8.3-35.5-15.2-52.4-7.4 22.4-6.3 46.4-11.2 69.3-5.8-11.5-7.5-24.4-11.6-36.5-9.7 17.6-15.7 37.1-27.2 53.7-9.3 13.4-17.4 27.7-24.5 42.4-8.6-16.7-17.8-33-28.1-48.6-9.9-15-16.1-32-25.5-47.3-3.5 11.2-5 23-9.5 33.9-5.8-22-4.2-45.6-12.3-67-10 18.5-12.1 39.7-19 59.3-9.4-19.7-7-42.5-15.7-62.2-18.7 26.4-27.8 60.9-19.4 92.8zm-332.5-46.5c-7.7 17.2-13.3 35.6-13.9 54.5q3.5-2.6 6.9-5.3c0.2 8.9-2.2 18.5 2.7 26.5 9.8-15.4 13.3-33.8 23-49.3 8.5-16 21.9-28.3 32.1-42.9-8.1-3.6-16-8.5-25-8.7-12.3 3.1-20.7 14.2-25.8 25.2zm246 1.8c-20.4 24.4-29.8 55.3-40.2 84.8-3.4 8.9-5.3 19.6-14 25 0.2-29.2 12.5-56 22.7-82.8 6.4-7.5 11-16.5 14-25.8 6.8-1.1 8.6-8.8 10.3-14.3-20-2.5-36.7 11.2-50.1 24.2-17 19.2-23.9 44.9-30.4 69.2-3.4 13.4-5 27.8-13.5 39.3 0.5-41.4 17.2-79.9 32.7-117.4-25.8 6.1-45.3 25.5-62.5 44.6-18.6 21.1-28.9 47.8-36.6 74.5 15.4-10.2 22.6-27.9 34.8-41.1-12.8 27.6-20.1 57.2-28.7 86.3 22.9-13.2 30.2-39.5 41.8-61.3-5.1 34.7-7.7 69.6-12.3 104.3 23.3-17.9 33-47.3 43.1-73.8 4-10.2 3.1-23 12.1-30.6 1.7 34.1-5.7 68.7 3.9 102.3 13.5-32.2 26.5-64.8 36.9-98.2 2.5 22.9 5.5 45.7 6 68.7 11.8-13.7 18-31.1 24.1-47.9 9.8-26.6 24.7-51.4 32.9-78.5 12-23.3 14.8-50.2 13.4-76.1-0.9-0.5-2.7-1.6-3.6-2.2-12.8 8.1-26.4 15.7-36.8 26.8zm625.2-16c12 12.3 25.7 23.3 34.2 38.5 10.8 16.1 15 35.2 22.4 52.8 2.9-12.6 3.5-25.6 7.5-37.9-3.4-21.3-10.9-43.8-26.7-59.1-11.6-10.4-27.3-2.8-37.4 5.7zm-229-7.3c-7 17.9-0.9 37.7 1.2 56.1 3.2 21 15.8 38.6 24.3 57.6 14 27.9 22.7 58.4 38.1 85.7 5.4-20.5 3.9-42 6-62.9 14.7 29.7 24.7 61.3 36.1 92.4 13-33.7 5-69.6 4.7-104.3 18.1 36.7 26.5 80.5 57.5 109.8-5.2-33.9-5.8-68.3-12.5-102 10.2 20 17.1 43.4 38.1 55.1-7.6-27.4-13.7-55.2-23.1-82.1 11.9 11.8 19.4 27.2 31.3 39.1-6.4-36.5-29.4-67.7-56.2-92.3-12-9.3-24-20.3-39.5-23 13.2 36.9 29.3 74 30.7 113.9-8.1-8.2-9.5-20-12.4-30.5-6.9-27.8-14.9-57-34.8-78.5-14.3-13.5-32.1-25-51.9-27.6 2.5 10.6 11.3 17.8 17 26.6 3.1 5.4 6.3 10.9 10.5 15.6 11.5 27.7 29 55.8 25.1 87-7.8-8.5-9.3-20.3-13.2-30.7-10.2-28-22.2-56.2-42.6-78.4-10.3-10.3-22.3-18.7-34.4-26.6zm224.6 24.9c-1.6 9.1 3.7 17.1 7.9 24.6 5.2 7.4 0.1 17.5 6.4 24.7 19 30.2 27 65.4 40.7 98 2.4-26.2-0.7-52.7-8.3-77.8-7.8-26.7-20.3-56.5-46.7-69.5zm-902.1 21.9c-6.6 24.2-8 51.5 3.3 74.6-1.2-32 10.2-62.7 10.1-94.5-9.2 2-10.8 12.4-13.4 19.9zm44.8 50.6c-8.9 24.6-9.6 51.4-6.2 77.1 11.5-31.7 20.5-64.9 37.6-94.4 5.6-7.4 2.9-17.4 8-25 4.9-8.4 10.5-17.8 7.9-27.9-26.6 13.6-38.7 43.3-47.3 70.2zm936.6-70.6c-0.3 31.2 10.2 61.5 8.1 92.9 11.3-22.2 11.2-49.4 5.3-73.3-2.4-7.6-4.4-17.4-13.4-19.6zm-716 274.2c-7.7-12.8-9.7-27.8-15.4-41.4-5.4 2.9-3.2 10.6-4.1 15.7 0.1 25.9 2.9 54.4 20 75.2 6.6-13.4 10.8-27.8 16.3-41.7 6.9 13.4 11.1 28.6 22.4 39.1-11.3-35-21-70.7-22.7-107.7-1-9.5 0.5-19.6-3.8-28.4-14.5 27.5-12.1 59.2-12.7 89.2zm446-49c-2.6 33.3-12.9 65.3-25.2 96.1 10.9-10.5 15.6-25.2 22.8-38.1 4.7 14.3 12.2 27.5 17.5 41.6 14-18.9 17.8-43.1 20.6-65.8 0.5-10.2 3.6-22.1-4.2-30.4-5.3 15.4-6.7 32.7-17.1 45.8 2.1-29.1 5.9-60.7-9.7-87-4.5 12.1-2.5 25.3-4.7 37.8z"/>
				</g>
				<path id="&lt;Path&gt;" class="s1" d="m942.3 382.6c0.9 16.4 12.7 34.2 4.7 49.8-9.1-2.9-13.7-14-9.7-22.6 3.9-8.6 4.5-18 5-27.2z"/>
				<path id="&lt;Path&gt;" class="s1" d="m1059.8 382.5c3 14.1 7.3 29.2 2.8 43.4-1.2 4.5-5.8 3.6-9.4 3.7 0.5-15.9 6.2-31.1 6.6-47.1z"/>
				<path id="&lt;Path&gt;" class="s1" d="m841.4 405.8c6.5 4.3 14.8 8.3 17.3 16.4 1.2 7.7-9.9 9.8-14.3 4.8-5.2-5.8-4.5-14.1-3-21.2z"/>
				<path id="&lt;Path&gt;" class="s1" d="m1100.4 429.1c-10.2-6.4 2.1-17.7 9.1-21.2 6.4 7.5 2.7 24-9.1 21.2z"/>
				<path id="&lt;Path&gt;" class="s1" d="m1140.3 429.2c-3-11.9 6.9-19.7 17.6-21.1 0.3 7.5-1.4 14.9-5.8 21.1q-5.9 0-11.8 0z"/>
				<path id="&lt;Path&gt;" class="s1" d="m892.3 428.1c-5.7-4-8.8-16.9 0.3-18.5 6.6 1.8 8.9 8.9 11.9 14.2-3.1 3.2-7.6 7.9-12.2 4.3z"/>
				<path id="&lt;Path&gt;" class="s1" d="m989.7 415.4c4.2 8.1 5.5 17.2 7.4 26 1.2-6 2.6-12 4.2-17.9q3 5.9 5.9 11.7c2.1-5 4.1-10.1 6-15.2 5 19.7 3.3 41.7-7.6 59.2-4.6-0.6-10.6-0.4-12.3-5.8-7.8-18.2-6.7-38.9-3.6-58z"/>
				<path id="&lt;Path&gt;" class="s1" d="m901.7 441.3c5.1 5 10.6 9.6 15 15.2 4.2 4.9 2.8 14.8-4.6 15.8-11.1-5.5-11.9-20.2-10.4-31z"/>
				<path id="&lt;Path&gt;" class="s1" d="m1091 450c2.3-3.3 4.9-6.3 7.7-9.2 0.9 10.1 1.1 22.3-7.2 29.7-3.8 3.7-9.8-0.1-10.2-4.8-1.8-6.8 3.3-12.6 6.9-17.7 0.7 0.5 2.1 1.5 2.8 2z"/>
				<path id="&lt;Path&gt;" class="s1" d="m743.8 444.8c10.4-5.7 17.3 8.1 11.9 16.4-9.3 2.1-21-8.5-11.9-16.4z"/>
				<path id="&lt;Path&gt;" class="s1" d="m838.8 443.4c12.7 14.7 13.1 34.7 8.5 52.7-17.8-11.4-33.9-26.4-44.5-44.9 12.2 1.2 21.3 9.8 31.6 15.5-2.5-5.1-5.2-10-8.3-14.7 3.3 1.5 7 5.4 10.7 2.6 1-3.6 1.4-7.4 2-11.2z"/>
				<path id="&lt;Path&gt;" class="s1" d="m1154.6 496.7c-7-18-5.5-41 10.6-53.7q-0.3 7.9-1.2 15.8 5.7-5.8 11.6-11.3-2.8 4.8-5.7 9.6c0.5 1 1.6 3.1 2.1 4.1 8.5-3.1 16.9-6.6 25.4-9.7-9.2 19.1-27.2 31.7-42.8 45.2z"/>
				<path id="&lt;Path&gt;" class="s1" d="m781.4 468.3c10.1 4.1 20.7 12.1 19.7 24.4-11.9 1-29.6-12.2-19.7-24.4z"/>
				<path id="&lt;Path&gt;" class="s1" d="m1197.9 487.5c-0.5-11.4 12.4-15.8 21.1-19.1 6.5 11.6-11.5 31.1-21.1 19.1z"/>
				<path id="&lt;Path&gt;" class="s1" d="m871.6 486c13.5 18.7 21.4 41.1 28.7 62.9-19-14.6-31.8-38.6-28.7-62.9z"/>
				<path id="&lt;Path&gt;" class="s1" d="m1113.2 537.4c0.6-18.3 8-35.7 17-51.3-0.5 17.6-0.1 40.8-17 51.3z"/>
				<path id="&lt;Path&gt;" class="s1" d="m1058.7 572.4c5.4-24.4 12.6-48.7 24.6-70.7-2.2 14.3-5.2 28.5-7.1 42.9 5.7-7.9 12.1-15.3 19.9-21.1-4.7 26.1-20.6 49.2-37.6 68.9-1.3-6.6-1.4-13.4 0.2-20z"/>
				<path id="&lt;Path&gt;" class="s1" d="m910.7 517.1c6.3 5.4 11.4 12.1 16.8 18.5q-0.6-8-1.3-16c13.1 21.6 22.6 47.4 20.5 72.9-19.1-20.5-29.6-48.5-36-75.4z"/>
				<path id="&lt;Path&gt;" class="s1" d="m503.7 929.4c12.4-6 19.5-18.7 31.4-25.5 0 21-25 41-45 33.5 3.2-4.4 9-5.3 13.6-8z"/>
				<path id="&lt;Path&gt;" class="s1" d="m1463.1 903.9c16.1 9.7 27 27.4 46.8 31.3-7.4 6.9-18.3 3.6-25.8-1.4-10.4-6.8-20.2-16.8-21-29.9z"/>
				<path id="&lt;Path&gt;" class="s1" d="m512 977.6c3.3 6.1 3.7 14.5 9.3 18.9 11.5 2.9 21.7-5.9 32-9.5-6.7 10.1-18.8 18.3-31.3 16.4-11.3-2.3-15.9-16.4-10-25.8z"/>
				<path id="&lt;Path&gt;" class="s1" d="m1472.4 996.5c7.7-2.5 8-12.1 10.1-18.6 1 0.8 2.9 2.4 3.9 3.2 0.2 8.7-1.8 20.8-12.3 22.2-11.6 0-22.1-7.6-29.5-16.2 9.3 3.1 17.8 9.3 27.8 9.4z"/>
				<path id="&lt;Path&gt;" class="s1" d="m525.2 1039.2c-7.5-10.1 0-22.1 7.5-29.7-1.6 7.1-3.5 14.2-5.3 21.3 6.2-0.7 12.4-1.6 18.6-2.2-5.2 6.4-13.1 8.8-20.8 10.6z"/>
				<path id="&lt;Path&gt;" class="s1" d="m1467.6 1009.3c6.9 6.4 13 16.9 9.3 26.3-8 6.7-18.2-1.9-24.7-7 6.8 0.9 13.5 1.9 20.2 2.7-1.4-7.4-3.1-14.7-4.8-22z"/>
				<path id="&lt;Path&gt;" class="s1" d="m1409.7 1053.1c12.1 9.9 27.2 14.3 40.3 22.3-17.1 5.2-34.3-6.6-40.3-22.3z"/>
				<path id="&lt;Path&gt;" class="s1" d="m557.3 1070.9c11-2.7 19.5-10.5 29.1-16-2.9 15.5-22.2 25-36.9 21.2-0.2-4.2 5.1-3.7 7.8-5.2z"/>
				<path id="&lt;Path&gt;" class="s1" d="m584.6 1129.3c1.7-19.1 12.1-35.6 18.8-53.2-0.5 19.1-6.3 38.5-18.8 53.2z"/>
				<path id="&lt;Path&gt;" class="s1" d="m1312.7 1083.8c5 11.7 11.6 22.6 21.1 31.2q-6.1 2.2-12.2 4.5c10.8 15.8 30.5 18.6 47.8 22.2-15.4 5.9-34.7-0.5-43.9-14.1-8.2-13-14.1-28.2-12.8-43.8z"/>
				<path id="&lt;Path&gt;" class="s1" d="m662.5 1117c4.5-10.7 7.2-22.4 14.7-31.6 1.4 10.9-1.3 21.6-5.9 31.4q-4.4 0.1-8.8 0.2z"/>
				<path id="&lt;Path&gt;" class="s1" d="m1395.1 1085.9c5.2 12.6 11.1 25.5 10.8 39.5-4.3-5.1-6.2-12-10.9-16.6-13.1-4.5-30.3-2.6-38.2-16.4 13.2 3 25.5 9.4 38.9 11.5-0.2-6-0.4-12-0.6-18z"/>
				<path id="&lt;Path&gt;" class="s1" d="m1012 1211c10.5-37.8 23.4-75 30.4-113.7 0.3 7.4 0.8 14.8 0.8 22.3-6.9 51.6-22.7 102-42.7 149.9-19.6-50.9-36.1-103.6-43.8-157.8q0.2-4.2 0.6-8.4c8.3 23.6 13.2 48.3 21.8 71.8 10.5 28.4 14.7 58.5 21.1 87.9 5.1-17.1 7.1-34.8 11.8-52z"/>
				<path id="&lt;Path&gt;" class="s1" d="m764.7 1371.6c4.2-23.2 11.1-46.1 22.2-67-7.2 28.3-16.7 56.1-19.1 85.4-2-6-2.8-12.2-3.1-18.4z"/>
				<path id="&lt;Path&gt;" class="s1" d="m1215 1306.6c12.7 24.1 23.5 50.8 20.9 78.5-5.3-26.6-14.3-52.2-20.9-78.5z"/>
				<path id="&lt;Path&gt;" class="s1" d="m908.3 1363.9c8.1-18.4 10.2-39.6 22.8-55.9-0.2 12.9-3.5 25.4-5.6 38-6.6 27.3-8.8 55.3-12 83.1-0.6 1.3-1.8 3.8-2.3 5.1-4.9-13.8-5.1-28.6-7.2-43 0.9-9.2 2.7-18.2 4.3-27.3z"/>
				<path id="&lt;Path&gt;" class="s1" d="m1068.2 1310.8c1.3 0.2 3.9 0.5 5.3 0.6 6.7 14.5 11.4 29.8 17.6 44.5 2.7 10.4 5.1 21 6.6 31.8 0.2 16.3-1.6 32.9-7.7 48.2q-2 2.7-3.9 5.5c0-14.3-0.6-28.6-1.3-42.9-1.1-17.7-7.6-34.5-9.9-52.1 0.5-12.2-4.1-23.8-6.7-35.6z"/>
			</g>
			<g id="&lt;Group&gt;">
				<path id="&lt;Path&gt;" class="s2" d="m465.9 294.5c0.4 1.9 0.8 3.9 1.1 5.9-0.3 37 19 71.1 41.8 99.1 35.2 40.9 81.6 70.9 114.4 114.1 15.9 18.9 28.3 40.5 43.4 60 9.3 11.5 16.8 26.4 32.6 29.6 2.3 0.8 4.2 2.4 5.8 4.1 30.8 33.7 62.2 67.2 98.3 95.3 22.6 18.4 44.8 37.2 66.8 56.2 5.3 4.8 9.6 10.5 13.7 16.2q-3 2.7-5.9 5.4c-17-8.2-29.1-23-43.7-34.5-16.8-14.7-36-26.2-52.6-41-16-14.3-34.3-26.6-46.3-44.8-11-17.6-29.6-28.2-42.5-44.3-12-15-29.8-23.4-42.6-37.4-27.3-33.8-57.7-64.9-89.4-94.4-3-2.4-6.2-4.3-9.4-6.3 1.7 5.4 4.1 10.7 4.9 16.4 0.2 11.6 3.4 22.7 8.2 33.2-43-27.3-84.4-58.2-119.2-95.6-4.4-5.7-13.7-13-7.4-20.6 24.7 23.5 50.1 47.2 80.3 63.5-3.1-6.9-6.9-13.4-10.6-20 13.5 8.6 23.6 21.6 37.6 29.4-16.1-27.8-44.7-45.8-61.3-73.5-23.1-33.1-33.1-77.5-18-116z"/>
				<path id="&lt;Path&gt;" class="s2" d="m1535.1 296.3c17.2 44.1-0.2 94.3-30.1 128.6-14.6 19.6-35.5 34.4-47.5 55.9q-4 1.2-8 2.4-0.3-4.1-0.6-8.3c-33 32.7-61.7 69.3-94.1 102.6-19 17.5-33.8 39-53.7 55.6-12.1 14.5-31.2 20.4-43.1 35-33.5 37.3-73.5 67.5-112.8 98.2-7.4 6.5-15.1 12.8-24.4 16.5 5.3-21.8 25.2-34.7 40.9-48.8 36.7-32.3 77.5-60.2 110-97.1 5.6-5.2 10.1-12.3 17.5-15.2 14.6-3.2 23.2-16.1 32.4-26.6 35.2-44.8 64.9-94.4 106.4-133.9 26.7-25.3 55.4-49.1 77.6-78.7 17.6-23.7 28.4-52.5 29.2-82.1 0.1-1 0.2-3 0.3-4.1z"/>
				<path id="&lt;Path&gt;" class="s2" d="m1472.6 480.4c33.5-19.4 63-45 91.8-70.6-1.2 4-1.9 8.2-4.4 11.5-36.9 41.8-80.7 76.6-125.2 109.8 3.2-9.1 11.6-16.4 11.7-26.5-0.4-8.8 5.3-15.8 10.1-22.5 14.4-9.5 26.8-21.6 39.9-32.7-6.9 11.1-16.9 20-23.9 31z"/>
				<path id="&lt;Path&gt;" class="s2" d="m452.7 737.7c7.1-15.3 20.4-26.4 35.4-33.4 5.1 7.7 12.4 14.2 21.9 15.5-19 6.3-38.1 12.3-57.3 17.9z"/>
				<path id="&lt;Path&gt;" class="s2" d="m602.8 775.3c8.1-15.6 26.3-24.1 43.5-22.7 24.5 1.7 49.7 8.1 69.5 23.2-14.6 1.4-29.2-1.7-43.8-2-23.1-2.1-46.2 0.5-69.2 1.5z"/>
				<path id="&lt;Path&gt;" class="s2" d="m1277.2 776.6c21.1-15.1 46.6-23.5 72.5-24 17.6-1.6 36.7 6.3 45.4 22.1-39.3-3.5-78.7-0.6-117.9 1.9z"/>
				<path id="&lt;Path&gt;" class="s2" d="m1351.2 813.8c5 0.4 10 1 15 1.6l-1.8 0.3q-5.2 0.9-10.5 1.7c11 27.9 14.9 58.9 7 88.2-12.2 56.2-67.4 98.4-124.6 97.1-29.7 0.4-58.1-11.4-82.5-27.6-7.2-5.2-16-7.2-24.6-8.8-17.1-16.4-27.5-41.6-27.5-65.5q5.7-3.2 11.5-6.4c5.8 18.6 12.1 38 25.8 52.6 14.7 16.2 34.3 30.6 57 31.7 14.2 1.9 28 6.7 42.4 6.9 39-0.7 77.2-24.1 93.5-59.8 5.2-11.6 3.5-24.5 3.3-36.7q-2.9 0.3-5.7 0.6c-7.2 43.5-44.4 79.8-88.5 84.1-16.1 1.8-32.1-1-48.1-2.4-0.6 1.2-1.9 3.5-2.5 4.6l-0.8 1.4c-24.7-11.9-47.7-32.1-54.6-59.6 14.6 16.7 28.5 36.2 50.7 43.1-9.5-10.1-22.2-16.9-30.1-28.5-10.2-15.2-18.7-32.8-18.4-51.3-0.5-4.3 4-5.9 6.6-8.2 2.2 56.4 67.1 99.1 119.6 78.1 24-9.4 43.4-30.3 49.9-55.3 3.6-14.8-0.9-29.8-0.7-44.8 25.7 9.1 26.1 42.4 26 65.2 4.7-10.3 7.7-21.3 9.4-32.5 2.4-11.8 2.1-24 0.8-35.9-1.4-11.4 2.9-22.5 2.4-33.9z"/>
				<g id="&lt;Group&gt;">
					<path id="&lt;Compound Path&gt;" fill-rule="evenodd" class="s2" d="m645 816.4c1.1-0.1 3.1-0.3 4.2-0.4 1.5 11.2 3.7 22.5 3.2 33.8-3.1 22.9-2.8 47.1 6.9 68.4 0.3-23.6 0.1-57.8 26.5-67.6-1 13.2-5.1 26.5-2.3 39.8 4 31.7 30.6 57.4 61.1 64.2 51.6 11.5 107.5-30 109.6-83.3q3.4 2.1 6.9 4.2c2 35.6-22.4 64.7-48.7 85.4 22.6-7.3 37.1-27.2 51.3-44.8-4.1 26.2-26.2 43.1-45.7 58.3 34.2-12.2 59.3-44.5 66-79.8 4.8 1.9 12.7 3.3 12.3 9.9-0.3 19-9.1 36.6-19.6 52l-1.7 0.4c-16 2.1-26.9 14.9-40.1 22.6-31.4 20.1-70.8 28.4-107.3 19.6-30.3-7.7-56-28.2-73.6-53.5-17.3-25.7-21.6-58.1-17.9-88.4 1.5-13.9 7-26.9 8.9-40.8zm25.5 116.8c19.6 35.2 61.6 57.3 101.8 51.7 15.3-2.2 30.1-7.1 44-13.9-3.2-1.9-6.9-3.8-10.7-2.2-20.6 6.7-42.9 6.6-64 2.7-36-8.6-66-39.9-71-76.9-10 10.7-5 26.7-0.1 38.6z"/>
				</g>
				<path id="&lt;Path&gt;" class="s2" d="m1031.6 937.5c5.4 10.9 12.5 21.1 16.3 32.7 1 6.1 0.4 12.3-0.6 18.3q-6.3-3.2-12.4-6.6-1 2-2 4c-8.8-9.4-16.1-21.1-15.3-34.6 5.3 8.2 10.6 16.5 17.3 23.6-2.1-12.4-4-24.8-3.3-37.4z"/>
				<path id="&lt;Path&gt;" class="s2" d="m1518 1221.1c9.1-26.9 26-49.7 38.2-75 12.6 33.4 22.1 68.2 27.9 103.5 1.8 22.2 13.8 42.5 11.7 65.2-1.7 27.3-7.2 55-19.2 79.8 6.7-52.1 7.3-106.7-12.1-156.3-5.3-12.3-10-25.3-19.1-35.5 3.4 39.1 12.7 78.4 6.4 117.7-5.1-24-6.7-49.6-19.8-71-0.8 8.5-1 17.1-0.5 25.6-1.1-0.3-3.3-0.8-4.4-1.1 0 7.8 0 15.6-0.4 23.4-10.3-15.4-16-33.2-24.3-49.7-5.4-10.6-14.5-18.5-21.7-27.7 14.2-9.4 25 5.7 32.1 16 1.7-5 3.3-10 5.2-14.9z"/>
				<path id="&lt;Path&gt;" class="s2" d="m445.7 1153.8c13.2 22.8 26.9 45.4 37.9 69.4 1.7 3.9 3.1 8 4.6 12.1 7.3-9.4 16.8-24.2 30.5-15.8-8.5 11-13.8 23.9-18.4 36.9-4 11.9-15.2 19.6-18.7 31.6-2.3 7.6-4.5 15.4-9.7 21.5-0.9-7.5-1.5-15.2-1.3-22.8 0.7-11.7 3.3-23.2 3.8-35-11.8 18-15 39.7-22.2 59.6-4.2-9-2-19.1-1.7-28.6 2.2-25.2 3.2-50.5 6-75.6-27 48.4-38.2 105.1-34.7 160.2 0.5 11.2 3.8 22.3 2.3 33.6-11.5-25.7-17.6-54.1-19.7-82.1-0.9-17.4 1.5-34.6 8-50.7 6.6-39.2 17.7-77.7 33.3-114.3z"/>
				<path id="&lt;Path&gt;" class="s2" d="m775.4 1298.8c9.5-10.2 20.2-19.5 32.7-26-2.9 15.2-7.2 30.2-7.5 45.8q6.3-5.8 12.4-11.7c-0.3 6.6-0.5 13.2-1 19.8-8.2 27.1-23.1 51.9-32.9 78.5-1-0.6-3-1.7-4-2.3q-0.8-4.2-1.5-8.4c-2-1.5-4-3-5.8-4.5 2.4-29.3 11.9-57.1 19.1-85.4-11.1 20.9-18 43.8-22.2 67-0.6-8.3-1.1-16.7-1.2-25.1q-2.1 1.1-4.2 2.1c2.3-17.2 3.9-36.3 16.1-49.8z"/>
				<path id="&lt;Path&gt;" class="s2" d="m714.7 1333c4.3-26.3 25.3-53.1 52.8-56.6-3 9.3-7.6 18.3-14 25.8-12.2 11-22.3 26-38.8 30.8z"/>
				<path id="&lt;Path&gt;" class="s2" d="m1238.6 1276.2c20.1 7 35.9 26 39.8 46.9-15.5 2.7-22.7-13.6-32.1-22.5-4.2-4.7-7.4-10.2-10.5-15.6q1.3-4.4 2.8-8.8z"/>
				<path id="&lt;Path&gt;" class="s2" d="m884.7 1321.9c6-0.7 13.6-1.4 16.8 5 5.5 11.5 5.3 24.6 6.8 37-1.6 9.1-3.4 18.1-4.3 27.3-7.7-22.7-13.5-46-19.3-69.3z"/>
				<path id="&lt;Path&gt;" class="s2" d="m1097.1 1327.8c2.9-7.1 11.9-4.6 17.9-5.5 0.1 11.2-2.1 22.1-6.1 32.5-4.3 10.8-3.1 23.7-11.2 32.9-1.5-10.8-3.9-21.4-6.6-31.8 0.4-9.6 1.4-19.5 6-28.1z"/>
				<path id="&lt;Path&gt;" class="s2" d="m809.2 1389.3c9.4-24.2 20-50.7 42-66.1 4.6 15.4 6.1 31.6 11.2 46.9 8.6 27.1 26.3 51.4 49.7 67.7 0.5-2.9 0.9-5.8 1.4-8.7 3.2-27.8 5.4-55.8 12-83.1 5.8-5.9 9.9-13.2 12.9-20.9 15.1 20 28.9 41.1 46.6 59 6.9 6.4 18.1 13.6 27 6.8 22.2-17.6 33.1-44.7 51.1-65.9 4.4 6.9 8.4 14 11.8 21.4 2.3 17.6 8.8 34.4 9.9 52.1 0.7 14.3 1.3 28.6 1.3 42.9q1.9-2.8 3.9-5.5c13.3-6.2 24.7-15.9 32-28.7 16.7-24.8 21-54.9 26.9-83.5 22.9 18.3 37.6 45.6 45.9 73.4 4.4 26.6 5.2 53.9 2.1 80.7-3.4 5.6-7.9 10.4-12.7 14.8 4-36.3 4.5-75.2-13.9-108 3.7 32 3.9 64.7-3.6 96.2-7.5-23.3-12.6-47.4-22.5-69.9-3.2 24.7-0.5 50.3-8.7 74.3-5.3 17-16.3 32.2-31.1 42.2-7.5-23-10.9-47.1-17.7-70.4-3.6 19.1-3 38.8-9.1 57.4-10.5-27.9-13-57.8-16.3-87.2 5.2-30.2 8.7-61.6 0.7-91.7-20.8 35.7-28.3 79-24.1 120 0.6-6.2 1.2-12.5 2-18.6 2.2 12.7-0.4 26.5 6.2 38.2-4 13.1-10.4 25.4-18.4 36.5 2.4-24 3.9-48 5.2-72.1-4.6 16.3-10.3 32.3-18.7 47.1-1.4-21.3-1.5-43-8.3-63.5-7.5 29.9-10.8 60.7-18.4 90.6-11.7-22.3-16.2-47.1-22.5-71.2-1.4 3-2.7 6-3.9 9.1 2.6-40-3.5-81.4-24.5-116.1-6.1 29.8-1.6 60.2 5.1 89.5-5.7 27.6-12.4 55.1-23.3 81.2-4.8-14.9-7.1-30.4-11.1-45.5-4.2 21.8-7.7 43.9-14.8 65-11.6-9.6-22.4-21.1-27.1-35.6-8.9-23.9-6.5-49.7-8.1-74.6-12 21.3-17.1 45.5-22.8 69-6-33.7-3.7-68-0.6-101.9-17.3 39.4-20.8 83.4-14.1 125.6-4.5-1.8-9-3.6-13.4-5.5-4.6-37.6-3.9-76.1 2.8-113.4z"/>
			</g>
			<g id="&lt;Group&gt;">
				<path id="&lt;Path&gt;" class="s3" d="m508.8 399.5c-22.8-28-42.1-62.1-41.8-99.1 13.9 33.3 31 65.9 57 91.5 22 22.5 48 40.5 69.5 63.4 34.3 35 54.8 80.3 83.7 119.4 6.8 9.9 15.3 18.5 22 28.5-15.8-3.2-23.3-18.1-32.6-29.6-15.1-19.5-27.5-41.1-43.4-60-32.8-43.2-79.2-73.2-114.5-114.1z"/>
				<path id="&lt;Path&gt;" class="s3" d="m1534.8 300.4c-0.8 29.6-11.6 58.4-29.2 82.1-22.2 29.6-50.9 53.4-77.6 78.7-41.5 39.5-71.2 89.1-106.4 133.9-9.2 10.5-17.8 23.4-32.4 26.6 20.5-25.9 43.4-50.1 61-78.2 21.1-33 40.5-67.7 68.5-95.5 29.5-31 66.7-55.2 88.9-92.8 11.4-17.1 17.5-36.9 27.2-54.8z"/>
				<path id="&lt;Path&gt;" class="s3" d="m1220.5 736.1c10.4-9.9 19.7-21.1 31.8-29.2-19.2 38.5-39.9 77.1-69.7 108.5-34.5 36.8-80.7 59.7-127.2 77.3 24.6-25.3 52.4-47.5 75.5-74.3 31.2-26 60.3-54.2 89.6-82.3z"/>
				<path id="&lt;Path&gt;" class="s3" d="m751.8 709.2c12.7 8.5 23.4 19.5 34.2 30.2 27.2 27.4 56.1 53.2 85.2 78.5 23.6 28.1 51.5 51.8 78.5 76.4-42.1-14.6-82.8-35.7-115.5-66.4-35.1-33.7-57.5-77.6-82.4-118.7z"/>
				<path id="&lt;Path&gt;" class="s3" d="m723.4 813.5c17-1.9 32.7 16.3 27.2 33-4.1 18.4-30.9 25-42.7 10-13.4-14.3-4.2-40.8 15.5-43z"/>
				<path id="&lt;Path&gt;" class="s3" d="m1272.2 813.4c21.1-2 34.7 26.1 20.3 41.6-11.2 16-39 10.4-43.3-8.5-5-15.4 7.8-31.1 23-33.1z"/>
				<path id="&lt;Path&gt;" class="s3" d="m632.4 817.8q6.3-0.7 12.6-1.4c-1.9 13.9-7.4 26.9-8.9 40.8-3.7 30.3 0.6 62.7 17.9 88.4 17.6 25.3 43.3 45.8 73.6 53.5 36.5 8.8 75.9 0.5 107.3-19.6 13.2-7.7 24.1-20.5 40.1-22.6-13.1 25-37.5 42.3-63.7 51.5-55.3 20.8-124.2 6-161.3-41.3-34.7-40.8-39-101.3-17.6-149.3z"/>
				<path id="&lt;Path&gt;" class="s3" d="m1353.9 817.4q5.3-0.8 10.5-1.7l1.9-0.3c14.2 32.1 18.5 69.3 7 102.9-14.1 48.5-57.1 87-106.8 96.2-49.3 9.5-108.2-4.7-137.3-48.2 8.6 1.6 17.4 3.6 24.6 8.8 24.4 16.2 52.8 28 82.5 27.6 57.2 1.3 112.4-40.9 124.6-97.1 7.9-29.3 4-60.3-7-88.2z"/>
				<path id="&lt;Path&gt;" class="s3" d="m1329.5 889.7q2.8-0.3 5.7-0.6c0.2 12.2 1.9 25.1-3.3 36.7-16.3 35.7-54.5 59.1-93.5 59.8-14.4-0.2-28.2-5-42.4-6.9-1.4-0.7-4.2-2-5.6-2.7 0.6-1.1 1.9-3.4 2.5-4.6 16 1.4 32 4.2 48.1 2.4 44.1-4.3 81.3-40.6 88.5-84.1z"/>
				<path id="&lt;Path&gt;" class="s3" d="m670.5 933.2c-4.9-12-9.9-27.9 0.1-38.6 5 37 35 68.3 71 76.9 21.1 3.9 43.4 4 64-2.7 3.8-1.6 7.5 0.3 10.7 2.2-13.9 6.8-28.7 11.7-44 13.9-40.2 5.6-82.2-16.5-101.8-51.7z"/>
				<path id="&lt;Path&gt;" class="s3" d="m1068.3 1002c-1.9-24.8-24-43.8-22.1-69.3 12.5 23.8 23.2 49.2 41.4 69.4-4.2-16.5-14.3-30.5-19.4-46.6 19.3 15.4 29.2 38.9 44.2 58 1.8-8.6-0.6-17.1-0.7-25.7 18.3 14.9 31.3 35.1 48.9 50.9 7.1 7.5 16.7 12.2 23.4 20.2 4.3 5.8 9.2 11.2 15 15.6 22.3 17.3 44.7 35.1 70.9 46.1 17.8 7.3 35.4 15.5 50.6 27.5q-4.1 0.3-8.1 0.5c-16.3-2.6-31-10.2-46.9-14.2 6.4 5.6 13.1 10.8 19.7 16.1-18-3.6-34.1-12.5-51.5-17.9 5.3 6 11.4 11.3 17.9 16.1-32-7.2-63.3-22.4-83.2-49.2q1.5 7 3 14.1c-17.8-5.7-27.3-22.5-39-35.6 2.3 9.5 5.6 18.7 9.5 27.7q-5.3-4.2-10.6-8.2 0.4 4 1 8c-10.7-13.4-19.9-28-30.6-41.3 1.9 13.7 7.1 26.7 10.4 40.2-12.9-16.6-21.7-35.8-31.9-53.9-1.8 16-4 32-9.1 47.3 1.6-40.4-14-80-38.2-111.9q1-2 2-4 6.1 3.4 12.4 6.6c1-6 1.6-12.2 0.6-18.3 7.7 10 13 21.6 20.4 31.8z"/>
				<path id="&lt;Path&gt;" class="s3" d="m915.8 998.6c18.2-18.1 24.2-44.7 40.6-63.7 0.4 25.3-18.9 44.9-23.3 69 9-10.5 14.9-23.2 23-34.4 1.5 2.5 3.2 4.9 4.9 7.3-2.6 4.9-5.2 9.7-8.1 14.4 4.9-3.2 10.3-5.6 16.2-6.5-22.7 31.4-37.4 68.5-40 107.3-5.1-13.4-5.8-27.9-8.2-42-10.9 15.3-18.8 32.5-29.2 48.1q-1.6-2.1-3.1-4.2c4.4-9.4 6.5-19.8 7.7-30-9 11.7-15.5 25.3-26.1 35.9-0.4-2.6-0.9-5.2-1.4-7.8-5.4 7.4-11.1 14.6-17.2 21.4 6.4-12 12.4-24.4 15.6-37.7-10.8 13.3-21.7 27.1-36.5 36.2q-0.5-4.3-1.1-8.6c-14.2 19.3-35.5 31.3-57.5 39.6q2.6-7.3 5.1-14.6c-20.5 11.6-42.5 20.5-65.9 24.1 5.8-4.9 11.2-10.2 16-16-18.3 3.9-35.4 13.4-54.4 13.3l-1.7-0.1c9-7.5 18.6-14.1 28.4-20.3 21.3-8.3 41.6-18.9 61-30.8 17.4-10.9 36.1-20.7 49.1-37 27-20 49.7-44.9 71.6-70.3q2.4 1.7 4.8 3.4c-1.2 7-2.3 14-3.2 21 16.2-15.1 24-36.6 39.1-52.4 2.2-2.7 5.8-1.5 8.7-1.5-5.1 12.2-11.8 23.9-14.9 36.9z"/>
				<path id="&lt;Path&gt;" class="s3" d="m987.5 1049.8c-2.6-13.8-6-36.4 10.8-42 19.9 2.8 18.1 29.2 16.3 44.2-2.2 7.8 0.3 15.3 5.3 21.5-2.8 46.2-8.6 92.5-19.2 137.6-5.9-30.7-9.5-61.7-14-92.6-1.6-15-4.4-30.1-2.8-45.2 5.4-7 6.8-15.3 3.6-23.5z"/>
				<path id="&lt;Path&gt;" class="s3" d="m936.6 1335.5c21 34.7 27.1 76.1 24.5 116.1-1.8 11.9-4 23.7-7.7 35.2-3.1-20.8-5.3-41.8-11.7-61.8-6.7-29.3-11.2-59.7-5.1-89.5z"/>
				<path id="&lt;Path&gt;" class="s3" d="m1037.9 1455.5c-4.2-41 3.3-84.3 24.1-120 8 30.1 4.5 61.5-0.7 91.7-4 16.3-9.5 32.1-15.2 47.9-6.6-11.7-4-25.5-6.2-38.2-0.8 6.1-1.4 12.4-2 18.6z"/>
			</g>
			<g id="&lt;Group&gt;">
				<g id="&lt;Group&gt;">
					<path id="&lt;Compound Path&gt;" fill-rule="evenodd" class="s4" d="m740.3 418c83.9-36.5 176.3-51.8 267.6-50.1 78.7 0.2 157 15.6 231.1 41.6 24.2 9.7 48.2 20.8 69.5 36 7.3 18.5 14.3 39.5 8.6 59.4-4.2-13.9-7.2-32.3-25-34-1.8-11.6-2.6-23.6-7.9-34.3-1.1 10.1-0.7 20.7-4.8 30.2-9-6.3-15-15.6-22.4-23.4-7.6-3.9-16.7 4.9-12.1 12.4 3.8 8.2 13.4 4.2 19.8 2.5 5.7 12.7 12.9 30.4 0.9 41.7-12.2 11.5-23.8 24.5-39.3 31.6 7.3-16 23.6-26.1 28.5-43.3-19.1 9.1-35.7 22.7-53 34.8-9 6.8-17.8 14.1-27.3 20.4 3.4-11.7 12.8-20 18.6-30.4-14.7 7.1-26.4 18.7-38 30q0-5.2 0-10.4c-2.2 1.4-4.3 2.8-6.4 4.2-8.8 6.9-14.8 16.6-23.1 24 2.5-8.2 4.5-16.5 6.9-24.8q-2.5-0.8-5.1-1.6c-6.7 7-14.6 12.5-22.7 17.7-12.4 8.2-19.8 21.7-25.7 34.9q-1.3-2.4-2.4-4.8-1.4 2.3-2.8 4.5c-12 18.4-19.3 39.2-27 59.6-1.7 5.6-8.2 5.5-13 6.4 2.4-21-1.4-42.1 1.4-62.9 9.4-38.8 14.8-79.6 8.9-119.4-5.2 39.5-18.5 77.5-20.6 117.4-2.2 16.4-0.4 35-11.1 48.9-0.6-29-1.3-58.9-11.3-86.4-1 21.7-3.4 43.2-3.7 64.9 0.1 5.8-3.4 10.7-6.5 15.2-5.6-29.8-9.5-59.9-16.4-89.5-7.9-25.7-12.9-52.1-18.8-78.3-2.8 32.6-0.4 65.7 7.8 97.4 7.7 27.6 12.7 56.6 9.2 85.2-5-3.6-8.7-8.5-11.6-14q-0.2 3.6-0.5 7.1c-8.9-20.2-19.6-39.6-33.1-57.1-7.2-11.4-20.4-16.4-29.6-25.9-7.2-7.3-13.9-15.2-21.2-22.4 1 8.8 1.5 17.6 2.1 26.4-7.9-6.5-14.5-14.3-22.3-21-3.4-3-6.8-6-10.1-9q-0.3 3.6-0.6 7.1c-13-5.8-21.9-18.2-35.6-22.9 5.3 10.1 13.8 18.3 17.9 29.1-6.2-3.3-11.9-7.4-17.5-11.7-22.5-14.8-45.8-28.5-68.5-42.9 9.4 17.3 25.2 29.6 37.5 44.6-11.4-4.6-21.8-11.4-30.9-19.6-7.9-7.2-17.5-14.8-19-26.1-1-10.6 2-21 3.6-31.4q-6 2.6-12 5.2c-1.2-8-2.3-16-3.6-23.9-2.8 11.1-4.3 22.6-6 33.9-7.1 2-16.8 1.9-20.3 9.6-3.3 8.8-2.4 18.5-3.1 27.7-7.9-19.5-3.5-40.8 1.5-60.5 15-12.3 33.1-20.9 50.5-29.6zm202-35.4c-0.5 9.2-1.1 18.6-5 27.2-4 8.6 0.6 19.7 9.7 22.6 8-15.6-3.8-33.4-4.7-49.8zm117.5-0.1c-0.4 16-6.1 31.2-6.6 47.1 3.6-0.1 8.2 0.8 9.4-3.7 4.5-14.2 0.2-29.3-2.8-43.4zm-218.4 23.3c-1.5 7.1-2.2 15.4 3 21.2 4.4 5 15.5 2.9 14.3-4.8-2.5-8.1-10.8-12.1-17.3-16.4zm259 23.3c11.8 2.8 15.5-13.7 9.1-21.2-7 3.5-19.3 14.8-9.1 21.2zm39.9 0.1q5.9 0 11.8 0c4.4-6.2 6.1-13.6 5.8-21.1-10.7 1.4-20.6 9.2-17.6 21.1zm-248-1.1c4.6 3.6 9.1-1.1 12.2-4.3-3-5.3-5.3-12.4-11.9-14.2-9.1 1.6-6 14.5-0.3 18.5zm97.4-12.7c-3.1 19.1-4.2 39.8 3.6 58 1.7 5.4 7.7 5.2 12.3 5.8 10.9-17.5 12.6-39.5 7.6-59.2-1.9 5.1-3.9 10.2-6 15.2q-2.9-5.8-5.9-11.7c-1.6 5.9-3 11.9-4.2 17.9-1.9-8.8-3.2-17.9-7.4-26zm-88 25.9c-1.5 10.8-0.7 25.5 10.4 31 7.4-1 8.8-10.9 4.6-15.8-4.4-5.6-9.9-10.2-15-15.2zm189.3 8.7c-0.7-0.5-2.1-1.5-2.8-2-3.6 5.1-8.7 10.9-6.9 17.7 0.4 4.7 6.4 8.5 10.2 4.8 8.3-7.4 8.1-19.6 7.2-29.7-2.8 2.9-5.4 5.9-7.7 9.2zm-347.2-5.2c-9.1 7.9 2.6 18.5 11.9 16.4 5.4-8.3-1.5-22.1-11.9-16.4zm95-1.4c-0.6 3.8-1 7.6-2 11.2-3.7 2.8-7.4-1.1-10.7-2.6 3.1 4.7 5.8 9.6 8.3 14.7-10.3-5.7-19.4-14.3-31.6-15.5 10.6 18.5 26.7 33.5 44.5 44.9 4.6-18 4.2-38-8.5-52.7zm315.8 53.3c15.6-13.5 33.6-26.1 42.8-45.2-8.5 3.1-16.9 6.6-25.4 9.7-0.5-1-1.6-3.1-2.1-4.1q2.9-4.8 5.7-9.6-5.9 5.5-11.6 11.3 0.9-7.9 1.2-15.8c-16.1 12.7-17.6 35.7-10.6 53.7zm-373.2-28.4c-9.9 12.2 7.8 25.4 19.7 24.4 1-12.3-9.6-20.3-19.7-24.4zm416.5 19.2c9.6 12 27.6-7.5 21.1-19.1-8.7 3.3-21.6 7.7-21.1 19.1zm-326.3-1.5c-3.1 24.3 9.7 48.3 28.7 62.9-7.3-21.8-15.2-44.2-28.7-62.9zm241.6 51.4c16.9-10.5 16.5-33.7 17-51.3-8.9 15.6-16.4 33-17 51.3zm-54.5 35c-1.6 6.6-1.5 13.4-0.2 20 17-19.7 32.9-42.8 37.6-68.9-7.8 5.8-14.2 13.2-19.9 21.1 1.9-14.4 4.9-28.6 7.1-42.9-12 22-19.2 46.3-24.6 70.7zm-148-55.3c6.4 26.9 16.9 54.9 36 75.4 2.1-25.5-7.4-51.3-20.5-72.9q0.7 8 1.3 16c-5.4-6.4-10.5-13.1-16.8-18.5z"/>
				</g>
				<path id="&lt;Path&gt;" class="s4" d="m1089.3 672c32-49.4 84-84.5 139.6-102.1-1.3 2.1-2.6 4.3-4.2 6.3-22.2 21.1-51.2 33.9-71.7 57-4.9-0.7-10.4-2.2-14.7 1-18.1 11.3-33 26.9-46.4 43.3q-1.3-2.7-2.6-5.5z"/>
				<path id="&lt;Path&gt;" class="s4" d="m830.6 616.1c-16.1-15.7-39.4-23.8-51.1-43.9 52.8 17.6 103.3 49.9 133.3 97.9q-1.2 2.9-2.4 5.8c-19.2-28.2-49.5-45.9-79.8-59.8z"/>
			</g>
			<g id="&lt;Group&gt;">
				<path id="&lt;Path&gt;" class="s5" d="m414.5 382.9c7.9 9.2 16 18.4 23.4 28.2-6.3 7.6 3 14.9 7.4 20.6 34.8 37.4 76.2 68.3 119.2 95.6-4.8-10.5-8-21.6-8.2-33.2 16.5 31.9 31.1 64.7 48.9 95.9-33.2-13.9-62-37.1-90-59.3 10.6 1.3 19.3 8.3 29.7 10.3-33.9-37.3-78.5-63.3-109.6-103.3-13.2-15.2-20.5-34.8-20.8-54.8z"/>
				<path id="&lt;Path&gt;" class="s5" d="m1564.4 409.8c4.1-10.8 13.9-18.3 21.2-27-1.9 19.6-9.5 38.5-22.3 53.6-22.3 30.3-53 52.4-80.5 77.7-10.4 9-21.3 18-28.2 30.1 8.8-4.6 17.7-9.7 27.8-11.2-26.4 21.7-53.8 44-85.7 56.9 9.4-15.1 18.1-30.5 25.4-46.6 9.2-20.6 22.2-40 25.2-62.8-10.6 13.3-18.3 28.6-27.4 42.9-13.9 23.3-32.2 43.6-47.1 66.2-9.9 14.5-20.1 29-32.9 41.2 2.8-8.1 6.1-15.9 9.1-23.9-20.1 16.4-33.6 39-51.7 57.3 1.1-4.7 2.3-9.3 3.4-13.9-5.8 4-11.4 8.5-16.7 13.2q-2.3-2.3-4.5-4.7c-50.6 51.1-104.1 99.7-162.5 141.7 1.1-5.7-0.4-13.3 3.8-17.7 9.3-3.7 17-10 24.4-16.5 39.3-30.7 79.3-60.9 112.8-98.2 11.9-14.6 31-20.5 43.1-35 19.9-16.6 34.7-38.1 53.7-55.6 32.4-33.3 61.1-69.9 94.1-102.6q0.3 4.2 0.6 8.3 4-1.2 8-2.4l-0.9 1.3c-4.8 6.7-10.5 13.7-10.1 22.5-0.1 10.1-8.5 17.4-11.7 26.5 44.5-33.2 88.3-68 125.2-109.8 2.5-3.3 3.2-7.6 4.4-11.5z"/>
				<path id="&lt;Path&gt;" class="s5" d="m560.8 484c31.7 29.5 62.1 60.6 89.4 94.4 12.8 14 30.6 22.4 42.6 37.4 12.9 16.1 31.5 26.7 42.5 44.3 12 18.2 30.3 30.5 46.3 44.8 16.6 14.8 35.8 26.3 52.6 41 14.6 11.5 26.7 26.3 43.7 34.5q2.9-2.7 5.9-5.4c5.9 9.7 9.2 20.6 10.7 31.8-13.1-8.2-23.8-19.5-36.6-28-49.2-34.3-92.3-76.4-132.8-120.5q1.7 5.8 3.3 11.8c-8.3-6.6-14.2-15.5-20.8-23.7q-0.4 4.8-0.7 9.6c-11.4-11.3-20.1-25.3-33.1-35 1.8 4.7 3.6 9.4 5.3 14.1-11.7-15-18-33.5-30.9-47.5 0.8 7.9 3.1 15.5 5.5 23.2-2.8-1.1-5.6-2.5-7.3-5.1-13-17-24.6-35.1-39.2-50.9-19.3-20.7-35.1-44.9-46.4-70.8z"/>
				<path id="&lt;Path&gt;" class="s5" d="m651.4 789.9c11.4-3.7 23.4 0.7 34.1 4.8-17 14.1-26.4 34.6-33.1 55.1 0.5-11.3-1.7-22.6-3.2-33.8-1.1 0.1-3.1 0.3-4.2 0.4q-6.3 0.7-12.6 1.4c5-10 8.5-22.4 19-27.9z"/>
				<path id="&lt;Path&gt;" class="s5" d="m1313.5 794.5c11-4.8 23.6-7.8 35.4-4.8 9.8 4.9 12.7 16.7 17.3 25.7-5-0.6-10-1.2-15-1.6 0.5 11.4-3.8 22.5-2.4 33.9 1.3 11.9 1.6 24.1-0.8 35.9 2.2-33.1-9.9-66.5-34.5-89.1z"/>
				<path id="&lt;Path&gt;" class="s5" d="m871.2 817.9c16 4 28.9 15.2 41.9 24.9 23.8 18.3 49.2 35 69.6 57.3 6 6.9 11.7 14 18.6 20 12.3-13.4 23.3-28.1 37.5-39.5 16.8-13.2 34.1-25.8 51-38.8 12.7-9.4 25.2-20.3 41.1-23.4-23.1 26.8-50.9 49-75.5 74.3-6.7 5.8-15.8 7.8-23 12.7-13.3 7.8-22.8 20.2-32.2 32-11.1-20.4-32.1-30.9-50.5-43.1-27-24.6-54.9-48.3-78.5-76.4z"/>
				<path id="&lt;Path&gt;" class="s5" d="m849.4 1132.7c14.8-11.1 31.7-21 39.2-38.8q1.5 2.1 3.1 4.2c-7.2 28-30.8 46.3-51.7 64.2-22.9 20.3-51.5 35.2-82 39.3-0.8-0.8-2.5-2.3-3.3-3.1q5.6-7.8 10.9-15.9c-3.4-1-6.8-2-10.3-2.8 33.6-10.5 66.8-24.5 94.1-47.1z"/>
				<path id="&lt;Path&gt;" class="s5" d="m404.4 1318.8c-6-64 8.7-130.3 40.5-186.2 13.6 29.8 34.9 57.3 38.7 90.6-11-24-24.7-46.6-37.9-69.4-15.6 36.6-26.7 75.1-33.3 114.3-6.5 16.1-8.9 33.3-8 50.7z"/>
				<path id="&lt;Path&gt;" class="s5" d="m1518 1221.1c3.7-32.8 24.9-59.5 36.9-89.4 11.9 15.4 18.9 33.8 24.9 52.1 14.1 41.9 20.6 86.9 16 131 2.1-22.7-9.9-43-11.7-65.2-5.8-35.3-15.3-70.1-27.9-103.5-12.2 25.3-29.1 48.1-38.2 75z"/>
				<path id="&lt;Path&gt;" class="s5" d="m518.7 1219.5l0.8-1.2c-1.6 14.9-12.1 26.6-16.6 40.6-11.1 34.6-20.4 69.8-28 105.3-9.5-24.5-9.5-52-4.3-77.5-0.2 7.6 0.4 15.3 1.3 22.8 5.2-6.1 7.4-13.9 9.7-21.5 3.5-12 14.7-19.7 18.7-31.6 4.6-13 9.9-25.9 18.4-36.9z"/>
				<path id="&lt;Path&gt;" class="s5" d="m1479.7 1218.9l1 1.1c7.2 9.2 16.3 17.1 21.7 27.7 8.3 16.5 14 34.3 24.3 49.7 0.4-7.8 0.4-15.6 0.4-23.4 1.1 0.3 3.3 0.8 4.4 1.1 2.9 25.3 2.9 52.1-6.5 76.2-11-32.3-16-67-29.5-98.7-4.7-11.5-12.4-21.6-15.8-33.7z"/>
				<path id="&lt;Path&gt;" class="s5" d="m503.7 1298.7c2.6-7.5 4.2-17.9 13.4-20 0.1 31.9-11.3 62.6-10.1 94.6-11.3-23.1-9.9-50.4-3.3-74.6z"/>
				<path id="&lt;Path&gt;" class="s5" d="m1485.1 1278.7c9 2.2 11 12 13.4 19.6 5.9 23.9 6 51.1-5.3 73.3 2.1-31.4-8.4-61.7-8.1-92.9z"/>
				<path id="&lt;Path&gt;" class="s5" d="m819.8 1508.2c-6.7-42.2-3.2-86.2 14.1-125.6-3.1 33.9-5.4 68.2 0.6 101.9 5.7-23.5 10.8-47.7 22.8-69 1.6 24.9-0.8 50.7 8.1 74.6 4.7 14.5 15.5 26 27.1 35.6 7.1-21.1 10.6-43.2 14.8-65 4 15.1 6.3 30.6 11.1 45.5 10.9-26.1 17.6-53.6 23.3-81.2 6.4 20 8.6 41 11.7 61.8 3.7-11.5 5.9-23.3 7.7-35.2 1.2-3.1 2.5-6.1 3.9-9.1 6.3 24.1 10.8 48.9 22.5 71.2 7.6-29.9 10.9-60.7 18.4-90.6 6.8 20.5 6.9 42.2 8.3 63.5 8.4-14.8 14.1-30.8 18.7-47.1-1.3 24.1-2.8 48.1-5.2 72.1 8-11.1 14.4-23.4 18.4-36.5 5.7-15.8 11.2-31.6 15.2-47.9 3.3 29.4 5.8 59.3 16.3 87.2 6.1-18.6 5.5-38.3 9.1-57.4 6.8 23.3 10.2 47.4 17.7 70.4 14.8-10 25.8-25.2 31.1-42.2 8.2-24 5.5-49.6 8.7-74.3 9.9 22.5 15 46.6 22.5 69.9 7.5-31.5 7.3-64.2 3.6-96.2 18.4 32.8 17.9 71.7 13.9 108 4.8-4.4 9.3-9.2 12.7-14.8-1.7 37.9-12.4 78.9-40.1 106.3-0.8-31.3-3.9-62.4-9-93.3-1.3 0-3.9-0.1-5.1-0.1-2.3 16.4-0.9 33.3-4.8 49.5-5.6 24.8-21 46.1-39.6 63 2.2-27.1-1.2-55.8-14.1-80.1-0.4 29.2-2.5 63-27.1 82.7 2.7-18.3 6.7-36.7 4.6-55.4-12.5 23.9-21.6 50.5-42 69.1 0.6-23.9 3.3-48.2-2.2-71.8-7.7 22.7-5.1 48.3-16.1 69.8-6.4-22.3-8.8-45.6-17-67.3-3.2 24.7-2.9 49.7-0.5 74.5-21.2-20.4-33.3-47.6-43-74.9-3 19.7 2.8 39 5.8 58.3-20.6-15.9-29.9-43.5-30.3-69-0.6-11.2 2.8-22.9-1.5-33.8-12.1 29.9-11.7 62.7-10.8 94.4-21.4-18.4-37.8-43.4-41.5-71.8-3-12.1 1.8-25.9-5.2-36.8-8.9 33.8-11.1 69.7-8.2 104.6-25.6-23.9-37.7-59.1-42.8-93 4.4 1.9 8.9 3.7 13.4 5.5z"/>
			</g>
			<g id="&lt;Group&gt;">
				<path id="&lt;Path&gt;" class="s6" d="m711.7 470.8c1.7-11.3 3.2-22.8 6-33.9 1.3 7.9 2.4 15.9 3.6 23.9q6-2.6 12-5.2c-1.6 10.4-4.6 20.8-3.6 31.4 1.5 11.3 11.1 18.9 19 26.1 9.1 8.2 19.5 15 30.9 19.6-12.3-15-28.1-27.3-37.5-44.6 22.7 14.4 46 28.1 68.5 42.9q-2.8 4-5.5 8c5 4.3 9.6 9.1 11.8 15.4-17.5 0-33-9.4-48.6-16.1-15.1-6.2-26.2-18.7-40-26.9-0.8 18.9 8.7 35.9 16.3 52.6 14.8 31.5 40.7 55.5 61.6 82.8-5.8-3.3-11.5-6.8-17.3-10.1 3.8 9.9 11.6 17.5 16.1 27.1-21.4-15.3-39.3-35.3-55.1-56.3-15.5-20.4-33-39.6-44.9-62.6-5.9-10.8-8.7-23-13.8-34.2-4.4 12.3-3.7 25.6-5.3 38.4-13.5-20-30.4-42.7-25.2-68.2 2.6-15.4 15.4-27 29.1-33.3-5 19.7-9.4 41-1.5 60.5 0.7-9.2-0.2-18.9 3.1-27.7 3.5-7.7 13.2-7.6 20.3-9.6z"/>
				<path id="&lt;Path&gt;" class="s6" d="m1284.2 436.6c5.3 10.7 6.1 22.7 7.9 34.3 17.8 1.7 20.8 20.1 25 34 5.7-19.9-1.3-40.9-8.6-59.4 25.2 9.4 40.6 39 33.8 65-6.4 16.2-17.1 30.1-27.3 44-0.7-13.9-1.1-28.3-7.3-41-7.4 21.9-15.4 44.3-31.7 61.3-12.6 17.8-26.2 34.8-40.8 51-10.1 7.7-15.2 20.2-26.5 26.6 3-7.1 6.5-13.9 10.2-20.6q-4.3 0.1-8.4 0.3c10.4-17.6 26.4-31 37.3-48.3 13.8-22.4 25.6-47.2 27.6-73.8-17.4 11.2-33.5 24.7-52.9 32.7-11.6 4.6-22.7 12.2-35.7 11.4 4.7-10.5 17.7-18.1 15-31 17.3-12.1 33.9-25.7 53-34.8-4.9 17.2-21.2 27.3-28.5 43.3 15.5-7.1 27.1-20.1 39.3-31.6 12-11.3 4.8-29-0.9-41.7-6.4 1.7-16 5.7-19.8-2.5-4.6-7.5 4.5-16.3 12.1-12.4 7.4 7.8 13.4 17.1 22.4 23.4 4.1-9.5 3.7-20.1 4.8-30.2z"/>
				<path id="&lt;Path&gt;" class="s6" d="m810.2 513.6c13.7 4.7 22.6 17.1 35.6 22.9q0.3-3.5 0.6-7.1c3.3 3 6.7 6 10.1 9-3.5 4.9 1 9.6 3.1 14 4.7 8 7.4 17 9.2 26-15.1-9.6-30.1-21.2-40.7-35.7-4.1-10.8-12.6-19-17.9-29.1z"/>
				<path id="&lt;Path&gt;" class="s6" d="m1155.1 543.1c11.6-11.3 23.3-22.9 38-30-5.8 10.4-15.2 18.7-18.6 30.4-8.9 15.3-25.3 25.2-39.8 34.9 4.4-13 12.1-24.4 16.8-37.3q-1.4-2.1-2.8-4.2c2.1-1.4 4.2-2.8 6.4-4.2q0 5.2 0 10.4z"/>
				<path id="&lt;Path&gt;" class="s6" d="m876.7 533c7.3 7.2 14 15.1 21.2 22.4 9.2 9.5 22.4 14.5 29.6 25.9-2 14.9 6.5 28.9 4.4 44-15-22.2-20.7-50.7-40.7-69.2 1.8 10.2 5.4 19.9 6.9 30.2-7.7-7.7-16.2-16.2-19.4-26.9-0.5-8.8-1-17.6-2-26.4z"/>
				<path id="&lt;Path&gt;" class="s6" d="m1127.4 534.5q2.6 0.8 5.1 1.6c-2.4 8.3-4.4 16.6-6.9 24.8-4.9 10.8-12.4 20.3-19.9 29.5-0.4-10.9 2.1-21.5 4.9-32-16.6 20.7-22.8 47.3-37.8 69-1-13.6 2.2-27 1-40.6q1.4-2.2 2.8-4.5 1.1 2.4 2.4 4.8c5.9-13.2 13.3-26.7 25.7-34.9 8.1-5.2 16-10.7 22.7-17.7z"/>
				<path id="&lt;Path&gt;" class="s6" d="m774.1 567.7c1.8 1.4 3.9 2.7 5.4 4.5 11.7 20.1 35 28.2 51.1 43.9q-4.2 0.9-8.4 1.8c4.6 10.6 11.5 20.1 15.4 31-10.2-4.2-16.8-13.3-24.3-20.8-16.4-17.5-32.4-37-39.2-60.4z"/>
				<path id="&lt;Path&gt;" class="s6" d="m1153 633.2c20.5-23.1 49.5-35.9 71.7-57-7.1 25.1-27 44.5-46.3 61 1.4-4.9 2.8-9.8 4.2-14.7-25.3 18.2-40.2 47-63.3 67.3 1-11.1 6.3-21 9.6-31.5-22.8 16.5-37.1 41.5-57.3 60.7 0.9-16.9 9.5-32.5 17.7-47q1.3 2.8 2.6 5.5c13.4-16.4 28.3-32 46.4-43.3 4.3-3.2 9.8-1.7 14.7-1z"/>
				<path id="&lt;Path&gt;" class="s6" d="m830.6 616.1c30.3 13.9 60.6 31.6 79.8 59.8q1.2-2.9 2.4-5.8c6.8 12.2 15.2 24.8 15.6 39.2-21-14.5-32-39.8-53.1-53.8 3.4 10.8 10.8 20.6 10 32.3-17.7-16.1-30.3-36.7-45.1-55.4-4-4.9-7.5-10.2-9.6-16.3z"/>
				<path id="&lt;Path&gt;" class="s6" d=""/>
				<path id="&lt;Path&gt;" class="s6" d="m951.2 683.8c21.7 19.9 38.4 44.7 50.6 71.4 11.9-26.9 30.3-50.6 52.7-69.6-13.2 30.1-35.9 55.3-45.6 87.1-2.9 4.6-2.2 13.9-7.8 15.3-6.1-16.2-10.4-33.4-20.3-48-10.6-18.3-23.6-35.7-29.6-56.2z"/>
				<path id="&lt;Path&gt;" class="s6" d="m940.2 751.5c16.1 18.5 26.9 42.3 28.6 66.8-7.5-12.6-14.3-25.6-23.4-37.1-6.9-8.3-5.5-19.7-5.2-29.7z"/>
				<path id="&lt;Path&gt;" class="s6" d="m539 1273.4c5.1-11 13.5-22.1 25.8-25.2 9 0.2 16.9 5.1 25 8.7-10.2 14.6-23.6 26.9-32.1 42.9-9.7 15.5-13.2 33.9-23 49.3-4.9-8-2.5-17.6-2.7-26.5q-3.4 2.7-6.9 5.3c0.6-18.9 6.2-37.3 13.9-54.5z"/>
				<path id="&lt;Path&gt;" class="s6" d="m1410.2 1259.2c10.1-8.5 25.8-16.1 37.4-5.7 15.8 15.3 23.3 37.8 26.7 59.1-4 12.3-4.6 25.3-7.5 37.9-7.4-17.6-11.6-36.7-22.4-52.8-8.5-15.2-22.2-26.2-34.2-38.5z"/>
			</g>
			<g id="&lt;Group&gt;">
				<path id="&lt;Path&gt;" class="s7" d="m554.7 631.1c36.3 13.6 69.8 34.3 101.6 56.2-36.8-12-72.5-30.3-101.6-56.2z"/>
				<path id="&lt;Path&gt;" class="s7" d="m1349.5 685.4c29-20.9 59.7-40.8 93.8-52.5-19.9 16.6-41.7 31.5-65.7 41.7-9.1 4.2-17.7 10.3-28.1 10.8z"/>
				<path id="&lt;Path&gt;" class="s7" d="m484.5 657.2c10.8-6.2 22.9-12.4 35.7-11.2 16.4 3 31.6 13 40.5 27.2-26.1-1.1-50.9-10.3-76.2-16z"/>
				<path id="&lt;Path&gt;" class="s7" d="m1440.9 670.2c6.8-11 17.8-19.6 30.3-23 13.7-2 28.1 1.7 39.8 8.9-22.4 7.7-46.1 16-70.1 14.1z"/>
				<path id="&lt;Path&gt;" class="s7" d="m465.6 684c13.4-8 29.2-15.4 45.1-11 22.1 5.7 41.7 18.1 61.9 28.5-21.5 4.2-41.2 14.8-62.6 18.3-9.5-1.3-16.8-7.8-21.9-15.5 8-2.2 16.1-3.7 24.1-5.3-15.2-6-32-7.4-46.6-15z"/>
				<path id="&lt;Path&gt;" class="s7" d="m1491.5 672.8c14.4-3.2 28.4 3.1 40.3 10.6-14.5 7.3-30.9 9.7-45.4 17.1 24.1 2 48.8 13 59 36.3-42.2-8.5-81.9-26.5-123.9-35.9 22.8-10.5 45.3-22.9 70-28.1z"/>
				<path id="&lt;Path&gt;" class="s7" d="m498.4 733.8c28.2-7.9 60.7-18.7 88.8-5.3-16 8-33.5 12.2-49.8 19.5 0.3-1.2 0.9-3.4 1.2-4.6-14.4 1.6-28.5-0.8-40.2-9.6z"/>
				<path id="&lt;Path&gt;" class="s7" d="m1414.7 728.4c25.4-12.1 55.4-5.7 80.6 3.9q-2.8 5.5-5.6 11c-8.6 0.8-17.2 2.2-25.8 3.4-16.4-5.1-32.8-12.3-49.2-18.3z"/>
				<path id="&lt;Path&gt;" class="s7" d="m492.8 780.8c4.4-14.8 18.6-23.4 32.3-28.2 18.9 1.1 37.8 1 56.7 1.8-8.4 7-16.9 14.4-21.5 24.6 7.8-0.9 15.5-2.2 23.2-3.6-9.2 15.9-20.4 32-21.7 50.9 12.8-10.7 27.9-23.6 45.9-19.9-5.1 18.8-20.3 32.5-25.7 51.1 6.4-5.1 12.1-11 17.4-17.3-5.3 18.1-3.8 37-4.7 55.5-9.1 12.2-24.9 18-32.3 31.8q4.8-1.9 9.6-3.8c-10.8 11.4-18.5 25.6-30.4 35.9 3.6-25.9 20.9-47.4 24.8-73.2-6.5 3-12.9 6.4-19.1 10.1q-0.7-6-1.5-11.9c-15.1 4.3-28.6 12.9-44.1 16.4 1.5-23.6 20.7-39.2 37.6-52.9-9.8 0.2-19.6 0.9-29.3 1.5 6.5-14.5 16.5-27 27.1-38.8-14.5 1.6-28.8 4.2-43.2 5.8 5.8-15.9 19-26.9 33.6-34.7-11.6 0.2-23.2 0.1-34.7-1.1z"/>
				<path id="&lt;Path&gt;" class="s7" d="m1415.3 755.1c19.3-6.6 39.8 0 59.5-2.3 13.3 4.5 24.8 13.5 31.3 26.1-11.7 2-23.6 3.1-35.4 4.1 13.1 7.9 25.6 18 31.4 32.7-15.1-0.8-30.1-2.1-45-4.7 12.8 10 24 22.2 30.5 37.1-9.1 0.4-18.2 0.3-27.3 0.3 14.5 16.8 39.2 28.2 40.3 53.4-21.7-6.2-41.9-16.4-63-24.1-2.8 27.3 13.3 50.2 19.4 75.6-16-13.3-27.5-31.1-44.6-43.2q2.8-1.1 5.5-2.2c-5.8-5-13.4-10.3-12.3-19.2 0.2-17.2-2-34.3-4.4-51.3 4.6 4.5 8.9 9.4 13.3 14.1-1.7-17.8-18.2-29.4-20.3-46.9 17.9-0.3 31.5 12 45.3 21.5-1.4-18.9-13.2-34.1-21.6-50.3 7.2 0.8 14.4 2 21.6 3.2-4.3-11.3-15.3-16.9-24.2-23.9z"/>
				<path id="&lt;Path&gt;" class="s7" d="m590.1 908.8c2.6-3 5.4-5.9 8.2-8.6 3.3 26.2 12.9 51.5 27.8 73.3 17.2 22.8 40.5 40.7 66.2 53 22 9.9 46.5 10.7 70 14-3.9 3-8 5.7-12.3 8.2 11.2-0.8 22.5-1.5 33.7-2q-0.6 5.4-0.8 10.8c-19.8 8.2-40.7 14.1-61.7 18.3-6 18.2-7.5 39.1-21.6 53.5-9.8 6.2-19.4 12.8-28.4 20.3-4.7-0.6-9.5-1.4-14.1-2.1 9.2-8.1 23.1-8.2 31.5-17.5 14.7-15 20.9-35.9 25.6-55.8-4-0.9-8.1-1.7-11.9-3.3-2.2-6 0.6-12.2 1.7-18.1q-7-2.8-14-5.6c-8.1 12.2-15.4 25.5-27.9 33.8 3.5-14.5 13.5-25.9 21.3-38.2-4.2-1.6-8.4-3.2-12.8-4.2-7.2-2.2-11.6 5.9-16 10.1 6.1-15.4-8.3-24.4-18.6-32.5-6.4 14.8-13.1 29.6-22.8 42.6 2-16.7 10.7-31.3 15.7-47 2.8-9.3-6.4-15.8-12.7-20.7-5.8 8.5-11.8 17.1-18.7 24.8 1.3-10.9 4.6-21.3 8-31.7 4.4-12.3-4.3-24-7.7-35.4-12 10.9-17.8 26.2-25.7 40 1.2-29 16.1-54.8 24.2-82.1q-3.1 1-6.2 2.1z"/>
				<path id="&lt;Path&gt;" class="s7" d="m1400 901.9c0.3 0.7 1 2.3 1.3 3.1 10.2 26.8 28.5 52.4 26.5 82.3-4.8-7.2-7.4-15.7-12.5-22.7-5.8-2.9-16.4-3.1-18.2 4.8-5.9 24.7-0.1 50 5.1 74.3-12.2-13.6-15.4-32.1-23.5-48q-15.3 16.8-30.8 33.3c5.5 8.6 10.3 17.8 12.4 27.8-8.9-7.9-15.2-18.1-20.9-28.3-8.6 5.3-17.6 10.1-26.8 14.4 9.2 13 20 25.6 23.6 41.6-13.4-9.9-22.2-24.4-30-38.8q-4.7 3-9.3 6 3-0.1 6.1-0.1c-6.2 9.7-10.6 20.5-12.2 32-4.3-11-15.4-14.3-26.1-15.3 8.8 18.7 13.7 39 21.9 58-18.8-8.6-15.1-32-23.9-47.3-12.1-12.5-30.9-12.6-45.8-20.1q1.5-2.3 3.1-4.5-3.4-3.3-6.8-6.6c6.6 0.2 13.2-0.5 19.7-1.7q-2.1-2.9-4.3-5.7c30.4-2.5 62.1-5.5 88.8-21.6 44.2-23 76.5-67.3 82.6-116.9z"/>
				<path id="&lt;Path&gt;" class="s7" d="m870.2 1099.8c10.6-10.6 17.1-24.2 26.1-35.9-1.2 10.2-3.3 20.6-7.7 30-7.5 17.8-24.4 27.7-39.2 38.8-27.3 22.6-60.5 36.6-94.1 47.1-33.6 8.6-68.9 2.5-99.8-12.3 7.6-4 23.1-5.8 17.4-17.8 19 0.1 36.1-9.4 54.4-13.3-4.8 5.8-10.2 11.1-16 16 23.4-3.6 45.4-12.5 65.9-24.1q-2.5 7.3-5.1 14.6c22-8.3 43.3-20.3 57.5-39.6q0.6 4.3 1.1 8.6c14.8-9.1 25.7-22.9 36.5-36.2-3.2 13.3-9.2 25.7-15.6 37.7 6.1-6.8 11.8-14 17.2-21.4 0.5 2.6 1 5.2 1.4 7.8z"/>
				<path id="&lt;Path&gt;" class="s7" d="m1101.7 1064.2c10.7 13.3 19.9 27.9 30.6 41.3q-0.6-4-1-8 5.3 4 10.6 8.2c-3.9-9-7.2-18.2-9.5-27.7 11.7 13.1 21.2 29.9 39 35.6q-1.5-7.1-3-14.1c19.9 26.8 51.2 42 83.2 49.2-6.5-4.8-12.6-10.1-17.9-16.1 17.4 5.4 33.5 14.3 51.5 17.9-6.6-5.3-13.3-10.5-19.7-16.1 15.9 4 30.6 11.6 46.9 14.2 2.4 0.5 4.8 1.1 7.2 1.8 1.6 9.3 10.7 13.1 18.3 16.7-24.8 15-55.6 18.7-83.8 12.5-12-3.8-20.1 9.3-21.1 19.6-32.7-6.8-60.4-26.8-85.7-47.7-14.5-13.1-32.1-26.3-35.2-47.1-3.3-13.5-8.5-26.5-10.4-40.2z"/>
				<path id="&lt;Path&gt;" class="s7" d="m871.5 1319.9c-8.4-31.9 0.7-66.4 19.4-92.8 8.7 19.7 6.3 42.5 15.7 62.2 6.9-19.6 9-40.8 19-59.3 8.1 21.4 6.5 45 12.3 67 4.5-10.9 6-22.7 9.5-33.9 9.4 15.3 15.6 32.3 25.5 47.3 10.3 15.6 19.5 31.9 28.1 48.6 7.1-14.7 15.2-29 24.5-42.4 11.5-16.6 17.5-36.1 27.2-53.7 4.1 12.1 5.8 25 11.6 36.5 4.9-22.9 3.8-46.9 11.2-69.3 6.9 16.9 10.3 34.9 15.2 52.4 1 2.2 0.8 6.4 4.3 5.7 6.3-19.6 7.6-40.4 12.5-60.3 16.6 20.2 25.2 46.8 24.2 72.9-0.4 26.2-14.4 49.4-20.1 74.5 26.1-21.3 33.2-58.1 30.8-90.2 0.1-12.9-5.3-25.6-2.3-38.4 8.9 10.3 13.1 23.5 19.3 35.3 18.1 35.9 37.4 73.8 35.4 115.1-8.3-27.8-23-55.1-45.9-73.4-5.9 28.6-10.1 58.7-26.9 83.5-7.3 12.8-18.7 22.5-32 28.7 6.1-15.3 7.9-31.9 7.7-48.2 8.1-9.2 6.9-22.1 11.2-32.9 4-10.4 6.2-21.3 6.1-32.5-6 0.9-15-1.6-17.9 5.5-4.6 8.6-5.6 18.5-6 28.1-6.2-14.7-10.9-30-17.6-44.5-1.4-0.1-4-0.4-5.3-0.6 2.6 11.8 7.2 23.4 6.7 35.6-3.4-7.4-7.4-14.5-11.8-21.4-18 21.2-28.9 48.3-51.1 65.9-8.9 6.8-20.1-0.4-27-6.8-17.7-17.9-31.5-39-46.6-59-3 7.7-7.1 15-12.9 20.9 2.1-12.6 5.4-25.1 5.6-38-12.6 16.3-14.7 37.5-22.8 55.9-1.5-12.4-1.3-25.5-6.8-37-3.2-6.4-10.8-5.7-16.8-5 5.8 23.3 11.6 46.6 19.3 69.3 2.1 14.4 2.3 29.2 7.2 43 0.5-1.3 1.7-3.8 2.3-5.1-0.5 2.9-0.9 5.8-1.4 8.7-23.3-16.3-41.1-40.6-49.7-67.7-5.1-15.3-6.6-31.5-11.2-46.9-22 15.4-32.6 41.9-42 66.1-1.8-39.8 18.1-75.5 33.9-110.6 5.3-10.7 8.2-22.9 16.6-31.8-1.2 31.6-5.4 64.7 7.9 94.6 5.1 11 10.2 23.1 20.9 29.8-3.6-17.8-13-33.8-17-51.4z"/>
				<path id="&lt;Path&gt;" class="s7" d="m769.1 1552.9c0.6-30-1.8-61.7 12.7-89.2 4.3 8.8 2.8 18.9 3.8 28.4 1.7 37 11.4 72.7 22.7 107.7-11.3-10.5-15.5-25.7-22.4-39.1-5.5 13.9-9.7 28.3-16.3 41.7-17.1-20.8-19.9-49.3-20-75.2 0.9-5.1-1.3-12.8 4.1-15.7 5.7 13.6 7.7 28.6 15.4 41.4z"/>
				<path id="&lt;Path&gt;" class="s7" d="m1215.1 1503.9c2.2-12.5 0.2-25.7 4.7-37.8 15.6 26.3 11.8 57.9 9.7 87 10.4-13.1 11.8-30.4 17.1-45.8 7.8 8.3 4.7 20.2 4.2 30.4-2.8 22.7-6.6 46.9-20.6 65.8-5.3-14.1-12.8-27.3-17.5-41.6-7.2 12.9-11.9 27.6-22.8 38.1 12.3-30.8 22.6-62.8 25.2-96.1z"/>
			</g>
			<g id="&lt;Group&gt;">
				<g id="&lt;Group&gt;">
					<path id="&lt;Compound Path&gt;" fill-rule="evenodd" class="s8" d="m1495.3 732.3c29.9 4.4 55.5 25.5 65.3 54.2-16.3-2.4-32.8-5.1-49.4-4.3 7.5 6.3 17.5 7.9 25.9 12.8 13.5 7.3 24.1 20.1 27.9 35.1-13.5-1.9-26.3-7.2-40-7.9 17.7 9.8 32.2 25.1 37.3 45-19.4-2.2-37.5-10-56.6-13.3 10.4 8.3 23.9 10.8 35.2 17.4 11.1 7 15.4 20.4 17.7 32.6-13-3.1-25.7-8-39.3-7.6 10 5.3 21.7 9.3 27.8 19.5 7 9.6 7.4 21.9 7.8 33.3-6.9-10.6-15.3-21-27.4-25.7 4.2 7.4 9.8 13.8 14.4 21 8.6 13.9 8.4 31.8 3.2 46.9-7.9-13.7-12.8-28.9-21.6-42 6.3 26.2 21.1 53.2 11.8 80.5-3.7-1.5-7.2-3.5-8.7-7.4-6.3-12.6-13.7-24.9-24.6-34.1 17.9 31.7 21.7 74.7-1.8 104.6-5.5-12.7-8.5-27.2-18.7-37.2 10.1 30.1 10.4 67.2-14 90.7 0.5-11.8 0.8-23.7-2-35.3-3.6 16.4-2.8 36.2-17.7 47.3q-0.8-8.8-1-17.7c-7.3 16.6-17 32.7-31.9 43.5 3.2-11.2 6.1-22.5 5.3-34.2-6 19.3-16.1 37.8-32.7 50-32.2 26.2-74.8 40-116.3 35.4 37-12.1 76.5-22.6 105.9-49.7 16.6-15.6 35.3-33.2 38.8-56.8-32.5 58.9-98.8 96.5-165.9 96-46.7 2.4-95.4-13.6-127-49 1-0.4 2.9-1.3 3.9-1.7 21.8 16 47.4 28.4 74.6 30.7-9.8-6.4-21.9-9.2-30.1-17.8 9.7-1.5 18.1 4.4 27 7.2 19.2 6.4 39.3 13.3 59.9 10.6-8.2-2.8-16.8-4.4-25.3-5.7 1-10.3 9.1-23.4 21.1-19.6 28.2 6.2 59 2.5 83.8-12.5-7.6-3.6-16.6-7.4-18.3-16.7-2.4-0.7-4.8-1.3-7.2-1.8q4-0.2 8.1-0.5c-15.2-12-32.8-20.2-50.6-27.5-26.2-11-48.6-28.8-70.9-46.1-5.8-4.4-10.7-9.8-15-15.6 11.1 3.5 21 10.7 32.9 11.4-9.2-7.8-20.1-13.7-27.6-23.4 9.6 3 18.6 7.7 27.6 12 14.9 7.5 33.7 7.6 45.8 20.1 8.8 15.3 5.1 38.7 23.9 47.3-8.2-19-13.1-39.3-21.9-58 10.7 1 21.8 4.3 26.1 15.3 1.6-11.5 6-22.3 12.2-32q-3.1 0-6.1 0.1 4.6-3 9.3-6c7.8 14.4 16.6 28.9 30 38.8-3.6-16-14.4-28.6-23.6-41.6 9.2-4.3 18.2-9.1 26.8-14.4 5.7 10.2 12 20.4 20.9 28.3-2.1-10-6.9-19.2-12.4-27.8q15.5-16.5 30.8-33.3c8.1 15.9 11.3 34.4 23.5 48-5.2-24.3-11-49.6-5.1-74.3 1.8-7.9 12.4-7.7 18.2-4.8 5.1 7 7.7 15.5 12.5 22.7 2-29.9-16.3-55.5-26.5-82.3 3.9 1.2 7.9 2.5 11.1 5.1 17.1 12.1 28.6 29.9 44.6 43.2-6.1-25.4-22.2-48.3-19.4-75.6 21.1 7.7 41.3 17.9 63 24.1-1.1-25.2-25.8-36.6-40.3-53.4 9.1 0 18.2 0.1 27.3-0.3-6.5-14.9-17.7-27.1-30.5-37.1 14.9 2.6 29.9 3.9 45 4.7-5.8-14.7-18.3-24.8-31.4-32.7 11.8-1 23.7-2.1 35.4-4.1-6.5-12.6-18-21.6-31.3-26.1-3.8-1.7-7.3-3.9-10.9-6.1 8.6-1.2 17.2-2.6 25.8-3.4q2.8-5.5 5.6-11zm-32.2 171.6c0.8 13.1 10.6 23.1 21 29.9 7.5 5 18.4 8.3 25.8 1.4-19.8-3.9-30.7-21.6-46.8-31.3zm9.3 92.6c-10-0.1-18.5-6.3-27.8-9.4 7.4 8.6 17.9 16.2 29.5 16.2 10.5-1.4 12.5-13.5 12.3-22.2-1-0.8-2.9-2.4-3.9-3.2-2.1 6.5-2.4 16.1-10.1 18.6zm-4.8 12.8c1.7 7.3 3.4 14.6 4.8 22-6.7-0.8-13.4-1.8-20.2-2.7 6.5 5.1 16.7 13.7 24.7 7 3.7-9.4-2.4-19.9-9.3-26.3zm-57.9 43.8c6 15.7 23.2 27.5 40.3 22.3-13.1-8-28.2-12.4-40.3-22.3zm-97 30.7c-1.3 15.6 4.6 30.8 12.8 43.8 9.2 13.6 28.5 20 43.9 14.1-17.3-3.6-37-6.4-47.8-22.2q6.1-2.3 12.2-4.5c-9.5-8.6-16.1-19.5-21.1-31.2zm82.4 2.1c0.2 6 0.4 12 0.6 18-13.4-2.1-25.7-8.5-38.9-11.5 7.9 13.8 25.1 11.9 38.2 16.4 4.7 4.6 6.6 11.5 10.9 16.6 0.3-14-5.6-26.9-10.8-39.5z"/>
				</g>
				<g id="&lt;Group&gt;">
					<path id="&lt;Compound Path&gt;" fill-rule="evenodd" class="s8" d="m439.4 784.7c7.5-26.7 32.2-45.9 59-50.9 11.7 8.8 25.8 11.2 40.2 9.6-0.3 1.2-0.9 3.4-1.2 4.6-4.1 1.5-8.2 3.1-12.3 4.6-13.7 4.8-27.9 13.4-32.3 28.2 11.5 1.2 23.1 1.3 34.7 1.1-14.6 7.8-27.8 18.8-33.6 34.7 14.4-1.6 28.7-4.2 43.2-5.8-10.6 11.8-20.6 24.3-27.1 38.8 9.7-0.6 19.5-1.3 29.3-1.5-16.9 13.7-36.1 29.3-37.6 52.9 15.5-3.5 29-12.1 44.1-16.4q0.8 5.9 1.5 11.9c6.2-3.7 12.6-7.1 19.1-10.1-3.9 25.8-21.2 47.3-24.8 73.2 11.9-10.3 19.6-24.5 30.4-35.9 5.3-5.7 11-11.4 18.1-14.9q3.1-1.1 6.2-2.1c-8.1 27.3-23 53.1-24.2 82 7.9-13.7 13.7-29 25.7-39.9 3.4 11.4 12.1 23.1 7.7 35.4-3.4 10.4-6.7 20.8-8 31.7 6.9-7.7 12.9-16.3 18.7-24.8 6.3 4.9 15.5 11.4 12.7 20.7-5 15.7-13.7 30.3-15.7 47 9.7-13 16.4-27.8 22.8-42.6 10.3 8.1 24.7 17.1 18.6 32.5 4.4-4.2 8.8-12.3 16-10.1 4.4 1 8.6 2.6 12.8 4.2-7.8 12.3-17.8 23.7-21.3 38.2 12.5-8.3 19.8-21.6 27.9-33.8q7 2.8 14 5.6c-1.1 5.9-3.9 12.1-1.7 18.1 3.8 1.6 7.9 2.4 11.9 3.3-4.7 19.9-10.9 40.8-25.6 55.8-8.4 9.3-22.3 9.4-31.5 17.5 4.6 0.7 9.4 1.5 14.1 2.1l1.7 0.1c5.7 12-9.8 13.8-17.4 17.8 30.9 14.8 66.2 20.9 99.8 12.3 3.5 0.8 6.9 1.8 10.3 2.8q-5.3 8.1-10.9 15.9c0.8 0.8 2.5 2.3 3.3 3.1-5.6 0.8-11 2.3-16.2 4.4 31.2 1.5 60.4-10.9 89-21.7-5.2 10.5-16.7 14.6-26.1 20.5 31-4.6 57.4-22.3 81.7-40.9-20.6 27.7-50.9 48-84.4 56-27.4 6.3-56 6.6-83.8 3.4-50.1-7.9-95.1-37.9-124.9-78.5 9.2 23.8 28.8 42 49.4 56.2 26.4 17.8 57.6 26 87.9 34.5-54.3 7.5-110.8-14.6-147-55.4-8.7-9.5-12.3-22-16.8-33.7-0.4 12.6 2.3 24.9 5.2 37.1-14.2-12.8-22.1-30.8-26.7-49-0.5 7.4-0.9 14.8-1.6 22.2-15.3-18.3-7.6-43.7-9.1-65.4-6.3 14.8-6 31-9.1 46.5-11.3-9.8-16.5-24.8-18.5-39.3-2.3-16.7 3.1-33.1 4.3-49.7-9 13.2-10.7 29.5-17.5 43.6-15.8-18.1-16.9-45-11.9-67.5 2.9-12.9 10.3-24.2 14.1-36.8-12.2 10.7-18.4 26.2-24.6 40.8-0.4-1.2-1.1-3.6-1.4-4.8q-2.9 3.9-5.9 7.8c-9-27.3 3.6-54.5 8.5-81.1-8.9 10.4-12.8 23.8-19.2 35.6-10.1-22.7 4.6-44.9 17-63.1-10.8 5.6-18.5 15.1-25.8 24.6-5.7-24.4 14.2-44.8 36.1-51.1-13.6-1.2-26.5 3.5-39.8 5.7 1.4-11.4 6.6-22.6 15.8-29.8 11.4-8.6 26.4-10.1 37.6-18.9-18.8 2.4-36.5 10.3-55.3 13.1 1.2-19.9 15.6-35.3 31.9-44.9-13.7 1.1-26.6 5.7-39.6 9.7 4.7-13.4 13.5-25.2 25-33.6 8.3-6.1 18.6-8.7 27-14.7-14.6-1.9-29.3 0.6-43.9 1.3zm64.3 144.7c-4.6 2.7-10.4 3.6-13.6 8 20 7.5 45-12.5 45-33.5-11.9 6.8-19 19.5-31.4 25.5zm8.3 48.2c-5.9 9.4-1.3 23.5 10 25.8 12.5 1.9 24.6-6.3 31.3-16.4-10.3 3.6-20.5 12.4-32 9.5-5.6-4.4-6-12.8-9.3-18.9zm13.2 61.6c7.7-1.8 15.6-4.2 20.8-10.6-6.2 0.6-12.4 1.5-18.6 2.2 1.8-7.1 3.7-14.2 5.3-21.3-7.5 7.6-15 19.6-7.5 29.7zm32.1 31.7c-2.7 1.5-8 1-7.8 5.2 14.7 3.8 34-5.7 36.9-21.2-9.6 5.5-18.1 13.3-29.1 16zm27.3 58.4c12.5-14.7 18.3-34.1 18.8-53.2-6.7 17.6-17.1 34.1-18.8 53.2zm77.9-12.3q4.4-0.1 8.8-0.2c4.6-9.8 7.3-20.5 5.9-31.4-7.5 9.2-10.2 20.9-14.7 31.6z"/>
				</g>
				<path id="&lt;Path&gt;" class="s8" d="m1075.5 802.1c7.2-26.9 30.8-45.3 53-60.1-6.5 12.8-14.2 24.8-21.2 37.3-7.8 13.2-14.4 27.8-26.5 37.8-8.9 7.4-15.5 17-24.2 24.6 4.7-13.9 13.9-25.7 18.9-39.6z"/>
				<path id="&lt;Path&gt;" class="s8" d="m878.8 744.4c21.9 16 45.6 34.6 52.9 62.1 3 10 9.3 18.9 10.5 29.5-30.4-23.3-44.5-59.7-63.4-91.6z"/>
				<path id="&lt;Path&gt;" class="s8" d="m782.9 1057.5c9-4.6 18.1-8.9 27.6-12.4-8.4 10.5-20.2 17.4-29.3 27.2 9.9-2.6 18.6-8.1 28.5-10.8-13 16.3-31.7 26.1-49.1 37-19.4 11.9-39.7 22.5-61 30.8 14.1-14.4 15.6-35.3 21.6-53.5 21-4.2 41.9-10.1 61.7-18.3z"/>
				<path id="&lt;Path&gt;" class="s8" d="m368.1 1289.3c-9.6-76.4 11.3-153.9 47.5-220.9 0.2 20.2 3.3 41.2-5.8 60.2-21.3 51.4-31.2 106.3-41.7 160.7z"/>
				<path id="&lt;Path&gt;" class="s8" d="m1586.6 1068.2c25.4 45.1 41 95.7 47.8 147 2.3 19.3 3.3 39-0.5 58.2-11.4-51.2-22.6-102.7-43.4-151.1-8.7-16.7-6.6-36.2-3.9-54.1z"/>
				<path id="&lt;Path&gt;" class="s8" d="m785 1275.2c10.4-11.1 24-18.7 36.8-26.8 0.9 0.6 2.7 1.7 3.6 2.2 1.4 25.9-1.4 52.8-13.4 76.1 0.5-6.6 0.7-13.2 1-19.8q-6.1 5.9-12.4 11.7c0.3-15.6 4.6-30.6 7.5-45.8-12.5 6.5-23.2 15.8-32.7 25.9-12.2 13.6-13.8 32.7-16.1 49.9q2.1-1 4.2-2.1c0.1 8.4 0.6 16.8 1.2 25.1 0.3 6.2 1.1 12.4 3.1 18.4 1.8 1.5 3.8 3 5.8 4.5q0.7 4.2 1.5 8.4c1 0.6 3 1.7 4 2.3-6.1 16.8-12.3 34.2-24.1 47.9-0.5-23-3.5-45.8-6-68.7-10.4 33.4-23.4 66-36.9 98.2-9.6-33.6-2.2-68.2-3.9-102.3-9 7.6-8.1 20.4-12.1 30.6-10.1 26.5-19.8 55.9-43.1 73.8 4.6-34.7 7.2-69.6 12.3-104.3-11.5 21.8-18.9 48.1-41.8 61.3 8.6-29.1 15.9-58.7 28.7-86.3-12.2 13.2-19.4 30.9-34.8 41.1 7.7-26.7 18-53.4 36.6-74.5 17.2-19.1 36.7-38.5 62.5-44.6-15.5 37.5-32.2 76-32.7 117.4 8.5-11.5 10.1-25.9 13.5-39.3 6.5-24.3 13.4-50 30.4-69.2 13.4-13 30.1-26.7 50.1-24.2-1.7 5.5-3.5 13.2-10.3 14.3-27.5 3.5-48.5 30.3-52.8 56.6 16.5-4.8 26.6-19.8 38.8-30.8-10.2 26.8-22.5 53.6-22.7 82.8 8.7-5.4 10.6-16.1 14-25 10.4-29.5 19.8-60.4 40.2-84.8z"/>
				<g id="&lt;Group&gt;">
					<path id="&lt;Compound Path&gt;" fill-rule="evenodd" class="s8" d="m1181.2 1251.9c12.1 7.9 24.1 16.3 34.4 26.6 20.4 22.2 32.4 50.4 42.6 78.4 3.9 10.4 5.4 22.2 13.2 30.7 3.9-31.2-13.6-59.3-25.1-87 9.4 8.9 16.6 25.2 32.1 22.5-3.9-20.9-19.7-39.9-39.8-46.9q-1.5 4.4-2.8 8.8c-5.7-8.8-14.5-16-17-26.6 19.8 2.6 37.6 14.1 51.9 27.6 19.9 21.5 27.9 50.7 34.8 78.5 2.9 10.5 4.3 22.3 12.4 30.5-1.4-39.9-17.5-77-30.7-113.9 15.5 2.6 27.5 13.7 39.5 23 26.8 24.6 49.8 55.8 56.2 92.3-11.9-11.9-19.4-27.3-31.3-39.1 9.4 26.9 15.5 54.7 23.1 82.1-21-11.7-27.9-35.1-38.1-55.1 6.7 33.7 7.3 68.1 12.5 102-31-29.3-39.4-73.1-57.5-109.8 0.3 34.7 8.3 70.6-4.7 104.3-11.4-31.1-21.4-62.7-36.1-92.4-2.1 20.9-0.6 42.4-6 62.9-15.4-27.3-24.1-57.8-38.1-85.7-8.5-19-21.1-36.6-24.3-57.6-2.1-18.4-8.2-38.2-1.2-56.1zm33.8 54.7c6.6 26.3 15.6 51.9 20.9 78.5 2.6-27.7-8.2-54.4-20.9-78.5z"/>
				</g>
				<path id="&lt;Path&gt;" class="s8" d="m1405.8 1276.8c26.4 13 38.9 42.8 46.7 69.5 7.6 25.1 10.7 51.6 8.3 77.8-13.7-32.6-21.7-67.8-40.7-98-6.3-7.2-1.2-17.3-6.4-24.7-4.2-7.5-9.5-15.5-7.9-24.6z"/>
				<path id="&lt;Path&gt;" class="s8" d="m548.5 1349.3c8.6-26.9 20.7-56.6 47.3-70.2 2.6 10.1-3 19.5-7.9 27.9-5.1 7.6-2.4 17.6-8 25-17.1 29.5-26.1 62.7-37.6 94.4-3.4-25.7-2.7-52.5 6.2-77.1z"/>
			</g>
			<g id="&lt;Group&gt;">
				<path id="&lt;Path&gt;" class="s9" d="m1035.7 818.6c3.9-26.1 12.6-53.9 34.2-70.7-0.8 11.9-2.3 24.8-10.7 34-9.9 10.9-14.5 25.2-23.5 36.7z"/>
				<path id="&lt;Path&gt;" class="s9" d="m881.3 991.2c18.9-22.4 29.9-49.6 38-77.4 7.9 16.1 4.1 34-3.2 49.4 9.6-11.5 14.8-25.8 23.6-37.9 0.6 12.8-3.5 25.1-9 36.4-2.9 0-6.5-1.2-8.7 1.5-15.1 15.8-22.9 37.3-39.1 52.4 0.9-7 2-14 3.2-21q-2.4-1.7-4.8-3.4z"/>
				<path id="&lt;Path&gt;" class="s9" d="m1077.4 913.6c6.7 10.8 7.7 24 12.6 35.6 4.5 13.9 14 25.1 21.6 37.3l0.1 1.3c0.1 8.6 2.5 17.1 0.7 25.7-15-19.1-24.9-42.6-44.2-58-6.8-8.2-9.1-19.8-8.1-30.2 5.7 7.6 9.6 16.4 15.3 24.1-0.6-12-1.4-24.2 2-35.8z"/>
				<path id="&lt;Path&gt;" class="s9" d="m956.1 969.5c2.8-11.8 10.8-21.6 16.5-32.1 0.3 10.6-1.1 21.1-3.4 31.4 5.2-5.4 10.3-10.9 15.6-16 3.2 12.6-7.7 22.3-14.3 31.6l-1.4 0.3c-5.9 0.9-11.3 3.3-16.2 6.5 2.9-4.7 5.5-9.5 8.1-14.4-1.7-2.4-3.4-4.8-4.9-7.3z"/>
				<path id="&lt;Path&gt;" class="s9" d="m953.4 1068.4c1.8-37 24-68.6 48-95.3 22.2 27.7 47.4 57.7 46.8 95.3-8.4-10-18.6-26.9-33.6-16.4 1.8-15 3.6-41.4-16.3-44.2-16.8 5.6-13.4 28.2-10.8 42-16.1-8-24.6 9.1-34.1 18.6z"/>
				<path id="&lt;Path&gt;" class="s9" d="m951.7 1093c-2.5-12.7 12-19.7 18.7-28.5 4.1 3.6 8.5 6.7 13.5 8.8-1.6 15.1 1.2 30.2 2.8 45.2 4.5 30.9 8.1 61.9 14 92.6 10.6-45.1 16.4-91.4 19.2-137.6q5.8-3.9 11.7-7.8c7.3 6.6 16.3 13.5 17.5 24.1 0.9 12.5-0.2 25-1.7 37.4 0.1-5.5-0.3-11-0.6-16.4-1.3 2.9-2.5 5.8-3.6 8.8 0-7.5-0.5-14.9-0.8-22.3-7 38.7-19.9 75.9-30.4 113.7-4.7 17.2-6.7 34.9-11.8 52-6.4-29.4-10.6-59.5-21.1-87.9-8.6-23.5-13.5-48.2-21.8-71.8q-0.4 4.2-0.6 8.4c-1.4-6.3-3.4-12.4-5-18.7z"/>
			</g>
		</g>
	</g>
</svg>